<?xml version="1.0" encoding="UTF-8" standalone="no"?>
<!-- Generator: Adobe Illustrator 9.0, SVG Export Plug-In  -->

<svg
   xmlns:dc="http://purl.org/dc/elements/1.1/"
   xmlns:cc="http://creativecommons.org/ns#"
   xmlns:rdf="http://www.w3.org/1999/02/22-rdf-syntax-ns#"
   xmlns:svg="http://www.w3.org/2000/svg"
   xmlns="http://www.w3.org/2000/svg"
   xmlns:sodipodi="http://sodipodi.sourceforge.net/DTD/sodipodi-0.dtd"
   xmlns:inkscape="http://www.inkscape.org/namespaces/inkscape"
   width="541.41699pt"
   height="541.41602pt"
   viewBox="0 0 541.417 541.416"
   xml:space="preserve"
   id="svg2242"
   sodipodi:version="0.32"
   inkscape:version="0.91 r13725"
   sodipodi:docname="keyboard_plate_keys.svg"
   inkscape:output_extension="org.inkscape.output.svg.inkscape"
   version="1.1"
   style="display:inline"><metadata
     id="metadata2286"><rdf:RDF><cc:Work
         rdf:about=""><dc:format>image/svg+xml</dc:format><dc:type
           rdf:resource="http://purl.org/dc/dcmitype/StillImage" /><dc:title /></cc:Work></rdf:RDF></metadata><defs
     id="defs2284"><inkscape:perspective
       sodipodi:type="inkscape:persp3d"
       inkscape:vp_x="0 : 338.38501 : 1"
       inkscape:vp_y="0 : 1000 : 0"
       inkscape:vp_z="676.77124 : 338.38501 : 1"
       inkscape:persp3d-origin="338.38562 : 225.59001 : 1"
       id="perspective37556" /><inkscape:perspective
       sodipodi:type="inkscape:persp3d"
       inkscape:vp_x="0 : 338.38501 : 1"
       inkscape:vp_y="0 : 1000 : 0"
       inkscape:vp_z="676.77124 : 338.38501 : 1"
       inkscape:persp3d-origin="338.38562 : 225.59001 : 1"
       id="perspective16301" /><inkscape:perspective
       sodipodi:type="inkscape:persp3d"
       inkscape:vp_x="0 : 270.7085 : 1"
       inkscape:vp_y="0 : 1000 : 0"
       inkscape:vp_z="541.41699 : 270.7085 : 1"
       inkscape:persp3d-origin="270.7085 : 180.47233 : 1"
       id="perspective12409" /><inkscape:perspective
       sodipodi:type="inkscape:persp3d"
       inkscape:vp_x="0 : 0.5 : 1"
       inkscape:vp_y="0 : 1000 : 0"
       inkscape:vp_z="1 : 0.5 : 1"
       inkscape:persp3d-origin="0.5 : 0.33333333 : 1"
       id="perspective9337" /><inkscape:perspective
       sodipodi:type="inkscape:persp3d"
       inkscape:vp_x="0 : 0.5 : 1"
       inkscape:vp_y="0 : 1000 : 0"
       inkscape:vp_z="1 : 0.5 : 1"
       inkscape:persp3d-origin="0.5 : 0.33333333 : 1"
       id="perspective8562" /><inkscape:perspective
       id="perspective3083"
       inkscape:persp3d-origin="338.38562 : 225.59001 : 1"
       inkscape:vp_z="676.77124 : 338.38501 : 1"
       inkscape:vp_y="0 : 1000 : 0"
       inkscape:vp_x="0 : 338.38501 : 1"
       sodipodi:type="inkscape:persp3d" /><inkscape:perspective
       id="perspective23419"
       inkscape:persp3d-origin="270.7085 : 180.47233 : 1"
       inkscape:vp_z="541.41699 : 270.7085 : 1"
       inkscape:vp_y="0 : 1000 : 0"
       inkscape:vp_x="0 : 270.7085 : 1"
       sodipodi:type="inkscape:persp3d" /><inkscape:perspective
       id="perspective27913"
       inkscape:persp3d-origin="338.38562 : 225.59001 : 1"
       inkscape:vp_z="676.77124 : 338.38501 : 1"
       inkscape:vp_y="0 : 1000 : 0"
       inkscape:vp_x="0 : 338.38501 : 1"
       sodipodi:type="inkscape:persp3d" /><inkscape:perspective
       sodipodi:type="inkscape:persp3d"
       inkscape:vp_x="0 : 338.38501 : 1"
       inkscape:vp_y="0 : 1000 : 0"
       inkscape:vp_z="676.77124 : 338.38501 : 1"
       inkscape:persp3d-origin="338.38562 : 225.59001 : 1"
       id="perspective27913-5" /><inkscape:perspective
       sodipodi:type="inkscape:persp3d"
       inkscape:vp_x="0 : 270.7085 : 1"
       inkscape:vp_y="0 : 1000 : 0"
       inkscape:vp_z="541.41699 : 270.7085 : 1"
       inkscape:persp3d-origin="270.7085 : 180.47233 : 1"
       id="perspective23419-6" /><inkscape:perspective
       sodipodi:type="inkscape:persp3d"
       inkscape:vp_x="0 : 338.38501 : 1"
       inkscape:vp_y="0 : 1000 : 0"
       inkscape:vp_z="676.77124 : 338.38501 : 1"
       inkscape:persp3d-origin="338.38562 : 225.59001 : 1"
       id="perspective3083-3" /><inkscape:perspective
       id="perspective8562-2"
       inkscape:persp3d-origin="0.5 : 0.33333333 : 1"
       inkscape:vp_z="1 : 0.5 : 1"
       inkscape:vp_y="0 : 1000 : 0"
       inkscape:vp_x="0 : 0.5 : 1"
       sodipodi:type="inkscape:persp3d" /><inkscape:perspective
       id="perspective9337-7"
       inkscape:persp3d-origin="0.5 : 0.33333333 : 1"
       inkscape:vp_z="1 : 0.5 : 1"
       inkscape:vp_y="0 : 1000 : 0"
       inkscape:vp_x="0 : 0.5 : 1"
       sodipodi:type="inkscape:persp3d" /><inkscape:perspective
       id="perspective12409-1"
       inkscape:persp3d-origin="270.7085 : 180.47233 : 1"
       inkscape:vp_z="541.41699 : 270.7085 : 1"
       inkscape:vp_y="0 : 1000 : 0"
       inkscape:vp_x="0 : 270.7085 : 1"
       sodipodi:type="inkscape:persp3d" /><inkscape:perspective
       id="perspective16301-9"
       inkscape:persp3d-origin="338.38562 : 225.59001 : 1"
       inkscape:vp_z="676.77124 : 338.38501 : 1"
       inkscape:vp_y="0 : 1000 : 0"
       inkscape:vp_x="0 : 338.38501 : 1"
       sodipodi:type="inkscape:persp3d" /><inkscape:perspective
       id="perspective37556-9"
       inkscape:persp3d-origin="338.38562 : 225.59001 : 1"
       inkscape:vp_z="676.77124 : 338.38501 : 1"
       inkscape:vp_y="0 : 1000 : 0"
       inkscape:vp_x="0 : 338.38501 : 1"
       sodipodi:type="inkscape:persp3d" /><inkscape:perspective
       id="perspective5074"
       inkscape:persp3d-origin="0.5 : 0.33333333 : 1"
       inkscape:vp_z="1 : 0.5 : 1"
       inkscape:vp_y="0 : 1000 : 0"
       inkscape:vp_x="0 : 0.5 : 1"
       sodipodi:type="inkscape:persp3d" /><inkscape:perspective
       id="perspective5377"
       inkscape:persp3d-origin="0.5 : 0.33333333 : 1"
       inkscape:vp_z="1 : 0.5 : 1"
       inkscape:vp_y="0 : 1000 : 0"
       inkscape:vp_x="0 : 0.5 : 1"
       sodipodi:type="inkscape:persp3d" /><inkscape:perspective
       id="perspective5377-5"
       inkscape:persp3d-origin="0.5 : 0.33333333 : 1"
       inkscape:vp_z="1 : 0.5 : 1"
       inkscape:vp_y="0 : 1000 : 0"
       inkscape:vp_x="0 : 0.5 : 1"
       sodipodi:type="inkscape:persp3d" /><inkscape:perspective
       id="perspective6033"
       inkscape:persp3d-origin="0.5 : 0.33333333 : 1"
       inkscape:vp_z="1 : 0.5 : 1"
       inkscape:vp_y="0 : 1000 : 0"
       inkscape:vp_x="0 : 0.5 : 1"
       sodipodi:type="inkscape:persp3d" /><inkscape:perspective
       id="perspective2989"
       inkscape:persp3d-origin="0.5 : 0.33333333 : 1"
       inkscape:vp_z="1 : 0.5 : 1"
       inkscape:vp_y="0 : 1000 : 0"
       inkscape:vp_x="0 : 0.5 : 1"
       sodipodi:type="inkscape:persp3d" /><inkscape:perspective
       id="perspective3039"
       inkscape:persp3d-origin="0.5 : 0.33333333 : 1"
       inkscape:vp_z="1 : 0.5 : 1"
       inkscape:vp_y="0 : 1000 : 0"
       inkscape:vp_x="0 : 0.5 : 1"
       sodipodi:type="inkscape:persp3d" /></defs><sodipodi:namedview
     inkscape:window-height="1142"
     inkscape:window-width="1920"
     inkscape:pageshadow="2"
     inkscape:pageopacity="0.0"
     guidetolerance="10.0"
     gridtolerance="10.0"
     objecttolerance="10.0"
     borderopacity="1.0"
     bordercolor="#666666"
     pagecolor="#ffffff"
     id="base"
     inkscape:zoom="1.2027698"
     inkscape:cx="250.21856"
     inkscape:cy="424.37554"
     inkscape:window-x="0"
     inkscape:window-y="0"
     inkscape:current-layer="layer9"
     showgrid="false"
     inkscape:window-maximized="1"
     inkscape:document-units="mm"
     units="mm"
     inkscape:snap-bbox="false"
     inkscape:bbox-paths="true"
     inkscape:object-nodes="true"
     inkscape:bbox-nodes="true"
     inkscape:snap-intersection-paths="true"
     inkscape:object-paths="true"
     inkscape:snap-bbox-midpoints="true"
     inkscape:snap-bbox-edge-midpoints="true"
     inkscape:snap-smooth-nodes="true"
     inkscape:snap-midpoints="true"
     inkscape:snap-object-midpoints="true"
     inkscape:snap-center="true"
     inkscape:snap-global="false" /><g
     inkscape:groupmode="layer"
     id="layer9"
     inkscape:label="Your Design"><path
       style="fill:none;stroke:#ff0000;stroke-width:0.02834646;stroke-linecap:butt;stroke-linejoin:miter;stroke-miterlimit:4;stroke-dasharray:none;stroke-opacity:1"
       d="m 81.809945,271.31422 0,9.92299 -2.281549,0 0,2.7796 -39.214091,0.0288 0,-2.77959 -2.281565,0 0,-9.923 2.253046,0 0.01426,-14.1844 -2.267297,0.016 0,-9.92296 2.281549,0 0,-2.7796 39.214089,-0.0288 0,2.77961 2.281559,0 0,9.92297 -2.25304,0 -0.01426,14.1844 z"
       id="path2985-9"
       inkscape:connector-curvature="0"
       sodipodi:nodetypes="ccccccccccccccccccccc" /><path
       style="fill:none;stroke:#ff0000;stroke-width:0.02834646;stroke-linecap:butt;stroke-linejoin:miter;stroke-miterlimit:4;stroke-dasharray:none;stroke-opacity:1"
       d="m 134.25088,271.31422 0,9.92299 -2.28155,0 0,2.7796 -39.214083,0.0288 0,-2.77959 -2.281569,0 0,-9.923 2.25305,0 0.01426,-14.1844 -2.267299,0.016 0,-9.92296 2.281549,0 0,-2.77957 39.214082,-0.0288 0,2.77956 2.28157,0 0,9.92297 -2.25305,0 -0.0143,14.1844 z"
       id="path2985-9-5"
       inkscape:connector-curvature="0"
       sodipodi:nodetypes="ccccccccccccccccccccc" /><path
       style="fill:none;stroke:#ff0000;stroke-width:0.02834646;stroke-linecap:butt;stroke-linejoin:miter;stroke-miterlimit:4;stroke-dasharray:none;stroke-opacity:1"
       d="m 134.25088,218.87329 0,9.92297 -2.28155,0 0,2.7796 -39.214083,0.0288 0,-2.77959 -2.281569,0 0,-9.92298 2.25305,0 0.01426,-14.1844 -2.267299,0.016 0,-9.92296 2.281549,0 0,-2.7796 39.214082,-0.0288 0,2.77961 2.28157,0 0,9.92295 -2.25305,0 -0.0143,14.1844 z"
       id="path2985-9-4"
       inkscape:connector-curvature="0"
       sodipodi:nodetypes="ccccccccccccccccccccc" /><path
       style="fill:none;stroke:#ff0000;stroke-width:0.02834646;stroke-linecap:butt;stroke-linejoin:miter;stroke-miterlimit:4;stroke-dasharray:none;stroke-opacity:1"
       d="m 81.809935,218.87328 0,9.923 -2.281549,0 0,2.7796 -39.214081,0.0288 0,-2.77959 -2.281565,0 0,-9.92301 2.253046,0 0.01426,-14.1844 -2.267297,0.016 0,-9.92296 2.281549,0 0,-2.7796 39.214089,-0.0288 0,2.7796 2.281559,0 0,9.92296 -2.25304,0 -0.01426,14.1844 z"
       id="path2985-9-48"
       inkscape:connector-curvature="0"
       sodipodi:nodetypes="ccccccccccccccccccccc" /><path
       style="fill:none;stroke:#ff0000;stroke-width:0.02834646;stroke-linecap:butt;stroke-linejoin:miter;stroke-miterlimit:4;stroke-dasharray:none;stroke-opacity:1"
       d="m 134.25088,166.43233 0,9.923 -2.28155,0 0,2.7796 -39.214083,0.0288 0,-2.77959 -2.281569,0 0,-9.92301 2.25305,0 0.01426,-14.1844 -2.267299,0.016 0,-9.92296 2.281549,0 0,-2.7796 39.214082,-0.0288 0,2.77961 2.28157,0 0,9.92295 -2.25305,0 -0.0143,14.1844 z"
       id="path2985-9-59"
       inkscape:connector-curvature="0"
       sodipodi:nodetypes="ccccccccccccccccccccc" /><path
       style="fill:none;stroke:#ff0000;stroke-width:0.02834646;stroke-linecap:butt;stroke-linejoin:miter;stroke-miterlimit:4;stroke-dasharray:none;stroke-opacity:1"
       d="m 81.809935,166.43233 0,9.923 -2.281549,0 0,2.7796 -39.214081,0.0288 0,-2.77959 -2.281565,0 0,-9.92301 2.253046,0 0.01426,-14.1844 -2.267297,0.016 0,-9.92296 2.281549,0 0,-2.7796 39.214089,-0.0288 0,2.77961 2.281559,0 0,9.92295 -2.25304,0 -0.01426,14.1844 z"
       id="path2985-9-1"
       inkscape:connector-curvature="0"
       sodipodi:nodetypes="ccccccccccccccccccccc" /><path
       style="fill:none;stroke:#ff0000;stroke-width:0.02834646;stroke-linecap:butt;stroke-linejoin:miter;stroke-miterlimit:4;stroke-dasharray:none;stroke-opacity:1"
       d="m 81.809945,113.99138 0,9.92301 -2.281549,0 0,2.7796 -39.214091,0.0288 0,-2.77959 -2.281565,0 0,-9.92302 2.253046,0 0.01426,-14.184395 -2.267297,0.016 0,-9.922963 2.281549,0 0,-2.779593 39.214089,-0.0288 0,2.779603 2.281569,0 0,9.922952 -2.25305,0 -0.01426,14.184396 z"
       id="path2985-9-42"
       inkscape:connector-curvature="0"
       sodipodi:nodetypes="ccccccccccccccccccccc" /><path
       style="fill:none;stroke:#ff0000;stroke-width:0.02834646;stroke-linecap:butt;stroke-linejoin:miter;stroke-miterlimit:4;stroke-dasharray:none;stroke-opacity:1"
       d="m 134.25088,113.99138 0,9.92301 -2.28155,0 0,2.7796 -39.214083,0.0288 0,-2.77959 -2.281569,0 0,-9.92302 2.25305,0 0.01426,-14.184395 -2.267289,0.016 0,-9.922963 2.281549,0 0,-2.779593 39.214072,-0.0288 0,2.779603 2.28157,0 0,9.922952 -2.25305,0 -0.0143,14.184396 z"
       id="path2985-9-7"
       inkscape:connector-curvature="0"
       sodipodi:nodetypes="ccccccccccccccccccccc" /><path
       style="fill:none;stroke:#ff0000;stroke-width:0.02834646;stroke-linecap:butt;stroke-linejoin:miter;stroke-miterlimit:4;stroke-dasharray:none;stroke-opacity:1"
       d="m 186.69181,271.31422 0,9.92299 -2.28155,0 0,2.7796 -39.21408,0.0288 0,-2.77959 -2.28157,0 0,-9.923 2.25305,0 0.0143,-14.1844 -2.2673,0.016 0,-9.92297 2.28155,0 0,-2.7796 39.21408,-0.0288 0,2.77961 2.28157,0 0,9.92296 -2.25305,0 -0.0143,14.1844 z"
       id="path2985-9-43"
       inkscape:connector-curvature="0"
       sodipodi:nodetypes="ccccccccccccccccccccc" /><path
       style="fill:none;stroke:#ff0000;stroke-width:0.02834646;stroke-linecap:butt;stroke-linejoin:miter;stroke-miterlimit:4;stroke-dasharray:none;stroke-opacity:1"
       d="m 186.69181,218.87329 0,9.92297 -2.28155,0 0,2.7796 -39.21408,0.0288 0,-2.77959 -2.28157,0 0,-9.92298 2.25305,0 0.0143,-14.1844 -2.2673,0.016 0,-9.92296 2.28155,0 0,-2.7796 39.21408,-0.0288 0,2.77961 2.28157,0 0,9.92295 -2.25305,0 -0.0143,14.1844 z"
       id="path2985-9-595"
       inkscape:connector-curvature="0"
       sodipodi:nodetypes="ccccccccccccccccccccc" /><path
       style="fill:none;stroke:#ff0000;stroke-width:0.02834646;stroke-linecap:butt;stroke-linejoin:miter;stroke-miterlimit:4;stroke-dasharray:none;stroke-opacity:1"
       d="m 186.69181,166.43233 0,9.923 -2.28155,0 0,2.7796 -39.21408,0.0288 0,-2.77959 -2.28157,0 0,-9.92301 2.25305,0 0.0143,-14.1844 -2.2673,0.016 0,-9.92296 2.28155,0 0,-2.7796 39.21408,-0.0288 0,2.77961 2.28157,0 0,9.92295 -2.25305,0 -0.0143,14.1844 z"
       id="path2985-9-8"
       inkscape:connector-curvature="0"
       sodipodi:nodetypes="ccccccccccccccccccccc" /><path
       style="fill:none;stroke:#ff0000;stroke-width:0.02834646;stroke-linecap:butt;stroke-linejoin:miter;stroke-miterlimit:4;stroke-dasharray:none;stroke-opacity:1"
       d="m 186.69181,113.99138 0,9.92301 -2.28155,0 0,2.7796 -39.21408,0.0288 0,-2.77959 -2.28157,0 0,-9.92302 2.25305,0 0.0143,-14.184395 -2.2673,0.016 0,-9.922963 2.28155,0 0,-2.779593 39.21408,-0.0288 0,2.779603 2.28157,0 0,9.922952 -2.25305,0 -0.0143,14.184396 z"
       id="path2985-9-2"
       inkscape:connector-curvature="0"
       sodipodi:nodetypes="ccccccccccccccccccccc" /><path
       style="fill:none;stroke:#ff0000;stroke-width:0.02834646;stroke-linecap:butt;stroke-linejoin:miter;stroke-miterlimit:4;stroke-dasharray:none;stroke-opacity:1"
       d="m 239.13275,233.04653 0,9.923 -2.28155,0 0,2.7796 -39.21409,0.0288 0,-2.77959 -2.28156,0 0,-9.92301 2.25304,0 0.0143,-14.1844 -2.26729,0.016 0,-9.92301 2.28155,0 0,-2.7796 39.21409,-0.0288 0,2.77959 2.28156,0 0,9.92302 -2.25304,0 -0.0143,14.1844 z"
       id="path2985-9-43-5"
       inkscape:connector-curvature="0"
       sodipodi:nodetypes="ccccccccccccccccccccc" /><path
       style="fill:none;stroke:#ff0000;stroke-width:0.02834646;stroke-linecap:butt;stroke-linejoin:miter;stroke-miterlimit:4;stroke-dasharray:none;stroke-opacity:1"
       d="m 239.13275,180.60556 0,9.92296 -2.28155,0 0,2.7796 -39.21409,0.0288 0,-2.77959 -2.28156,0 0,-9.92297 2.25304,0 0.0143,-14.1844 -2.26729,0.016 0,-9.92296 2.28155,0 0,-2.7796 39.21409,-0.0288 0,2.77961 2.28156,0 0,9.92295 -2.25304,0 -0.0143,14.1844 z"
       id="path2985-9-595-5"
       inkscape:connector-curvature="0"
       sodipodi:nodetypes="ccccccccccccccccccccc" /><path
       style="fill:none;stroke:#ff0000;stroke-width:0.02834646;stroke-linecap:butt;stroke-linejoin:miter;stroke-miterlimit:4;stroke-dasharray:none;stroke-opacity:1"
       d="m 239.13275,128.1646 0,9.923 -2.28155,0 0,2.7796 -39.21409,0.0288 0,-2.77959 -2.28156,0 0,-9.92301 2.25304,0 0.0143,-14.1844 -2.26729,0.016 0,-9.92296 2.28155,0 0,-2.7796 39.21409,-0.0288 0,2.77961 2.28156,0 0,9.92295 -2.25304,0 -0.0143,14.1844 z"
       id="path2985-9-8-4"
       inkscape:connector-curvature="0"
       sodipodi:nodetypes="ccccccccccccccccccccc" /><path
       style="fill:none;stroke:#ff0000;stroke-width:0.02834646;stroke-linecap:butt;stroke-linejoin:miter;stroke-miterlimit:4;stroke-dasharray:none;stroke-opacity:1"
       d="m 239.13275,75.723656 0,9.923003 -2.28155,0 0,2.779593 -39.21409,0.0288 0,-2.779593 -2.28156,0 0,-9.923002 2.25304,0 0.0143,-14.184406 -2.26729,0.016 0,-9.922963 2.28155,0 0,-2.779592 39.21409,-0.0288 0,2.779608 2.28156,0 0,9.922946 -2.25304,0 -0.0143,14.184406 z"
       id="path2985-9-2-9"
       inkscape:connector-curvature="0"
       sodipodi:nodetypes="ccccccccccccccccccccc" /><path
       style="fill:none;stroke:#ff0000;stroke-width:0.02834646;stroke-linecap:butt;stroke-linejoin:miter;stroke-miterlimit:4;stroke-dasharray:none;stroke-opacity:1"
       d="m 291.5737,220.2906 0,9.923 -2.28154,0 0,2.7796 -39.2141,0.0288 0,-2.77959 -2.28157,0 0,-9.92301 2.25305,0 0.0143,-14.1844 -2.2673,0.016 0,-9.92297 2.28155,0 0,-2.7796 39.2141,-0.0288 0,2.7796 2.28156,0 0,9.92297 -2.25304,0 -0.0143,14.1844 z"
       id="path2985-9-43-4"
       inkscape:connector-curvature="0"
       sodipodi:nodetypes="ccccccccccccccccccccc" /><path
       style="fill:none;stroke:#ff0000;stroke-width:0.02834646;stroke-linecap:butt;stroke-linejoin:miter;stroke-miterlimit:4;stroke-dasharray:none;stroke-opacity:1"
       d="m 291.5737,167.84967 0,9.92297 -2.28154,0 0,2.7796 -39.2141,0.0288 0,-2.77959 -2.28157,0 0,-9.92298 2.25305,0 0.0143,-14.1844 -2.2673,0.016 0,-9.92296 2.28155,0 0,-2.7796 39.2141,-0.0288 0,2.7796 2.28156,0 0,9.92296 -2.25304,0 -0.0143,14.1844 z"
       id="path2985-9-595-2"
       inkscape:connector-curvature="0"
       sodipodi:nodetypes="ccccccccccccccccccccc" /><path
       style="fill:none;stroke:#ff0000;stroke-width:0.02834646;stroke-linecap:butt;stroke-linejoin:miter;stroke-miterlimit:4;stroke-dasharray:none;stroke-opacity:1"
       d="m 291.5737,115.4087 0,9.92301 -2.28154,0 0,2.7796 -39.2141,0.0288 0,-2.77959 -2.28157,0 0,-9.92302 2.25305,0 0.0143,-14.18439 -2.2673,0.016 0,-9.922962 2.28155,0 0,-2.779593 39.2141,-0.0288 0,2.779603 2.28156,0 0,9.922952 -2.25304,0 -0.0143,14.18439 z"
       id="path2985-9-8-3"
       inkscape:connector-curvature="0"
       sodipodi:nodetypes="ccccccccccccccccccccc" /><path
       style="fill:none;stroke:#ff0000;stroke-width:0.02834646;stroke-linecap:butt;stroke-linejoin:miter;stroke-miterlimit:4;stroke-dasharray:none;stroke-opacity:1"
       d="m 291.5737,62.96776 0,9.923001 -2.28154,0 0,2.779591 -39.2141,0.0288 0,-2.779591 -2.28157,0 0,-9.923 2.25305,0 0.0143,-14.184405 -2.2673,0.016 0,-9.922963 2.28155,0 0,-2.779593 39.2141,-0.0288 0,2.779609 2.28156,0 0,9.922946 -2.25304,0 -0.0143,14.184405 z"
       id="path2985-9-2-8"
       inkscape:connector-curvature="0"
       sodipodi:nodetypes="ccccccccccccccccccccc" /><path
       style="fill:none;stroke:#ff0000;stroke-width:0.02834646;stroke-linecap:butt;stroke-linejoin:miter;stroke-miterlimit:4;stroke-dasharray:none;stroke-opacity:1"
       d="m 344.01463,233.0465 0,9.923 -2.28155,0 0,2.7796 -39.21408,0.0288 0,-2.77959 -2.28157,0 0,-9.92301 2.25305,0 0.0143,-14.1844 -2.2673,0.016 0,-9.92297 2.28155,0 0,-2.7796 39.21409,-0.0288 0,2.77961 2.28156,0 0,9.92296 -2.25304,0 -0.0143,14.1844 z"
       id="path2985-9-43-2"
       inkscape:connector-curvature="0"
       sodipodi:nodetypes="ccccccccccccccccccccc" /><path
       style="fill:none;stroke:#ff0000;stroke-width:0.02834646;stroke-linecap:butt;stroke-linejoin:miter;stroke-miterlimit:4;stroke-dasharray:none;stroke-opacity:1"
       d="m 344.01463,180.60557 0,9.92297 -2.28155,0 0,2.7796 -39.21408,0.0288 0,-2.77959 -2.28157,0 0,-9.92298 2.25305,0 0.0143,-14.1844 -2.2673,0.016 0,-9.92296 2.28155,0 0,-2.7796 39.21409,-0.0288 0,2.77961 2.28156,0 0,9.92295 -2.25304,0 -0.0143,14.1844 z"
       id="path2985-9-595-6"
       inkscape:connector-curvature="0"
       sodipodi:nodetypes="ccccccccccccccccccccc" /><path
       style="fill:none;stroke:#ff0000;stroke-width:0.02834646;stroke-linecap:butt;stroke-linejoin:miter;stroke-miterlimit:4;stroke-dasharray:none;stroke-opacity:1"
       d="m 344.01463,128.16461 0,9.923 -2.28155,0 0,2.7796 -39.21408,0.0288 0,-2.77959 -2.28157,0 0,-9.92301 2.25305,0 0.0143,-14.1844 -2.2673,0.016 0,-9.92296 2.28155,0 0,-2.7796 39.21409,-0.0288 0,2.77961 2.28156,0 0,9.92295 -2.25304,0 -0.0143,14.1844 z"
       id="path2985-9-8-8"
       inkscape:connector-curvature="0"
       sodipodi:nodetypes="ccccccccccccccccccccc" /><path
       style="fill:none;stroke:#ff0000;stroke-width:0.02834646;stroke-linecap:butt;stroke-linejoin:miter;stroke-miterlimit:4;stroke-dasharray:none;stroke-opacity:1"
       d="m 344.01463,75.723666 0,9.923003 -2.28155,0 0,2.779593 -39.21408,0.0288 0,-2.779593 -2.28157,0 0,-9.923002 2.25305,0 0.0143,-14.184408 -2.2673,0.016 0,-9.922963 2.28155,0 0,-2.779592 39.21409,-0.0288 0,2.779608 2.28156,0 0,9.922946 -2.25304,0 -0.0143,14.184408 z"
       id="path2985-9-2-7"
       inkscape:connector-curvature="0"
       sodipodi:nodetypes="ccccccccccccccccccccc" /><path
       style="fill:none;stroke:#ff0000;stroke-width:0.02834646;stroke-linecap:butt;stroke-linejoin:miter;stroke-miterlimit:4;stroke-dasharray:none;stroke-opacity:1"
       d="m 344.01463,284.07012 0,9.923 -2.28155,0 0,2.7796 -39.21408,0.0288 0,-2.77959 -2.28157,0 0,-9.92301 2.25305,0 0.0143,-14.18439 -2.2673,0.016 0,-9.92297 2.28155,0 0,-2.7796 39.21409,-0.0288 0,2.7796 2.28156,0 0,9.92297 -2.25304,0 -0.0143,14.18439 z"
       id="path2985-9-43-2-6"
       inkscape:connector-curvature="0"
       sodipodi:nodetypes="ccccccccccccccccccccc" /><path
       style="fill:none;stroke:#ff0000;stroke-width:0.02834646;stroke-linecap:butt;stroke-linejoin:miter;stroke-miterlimit:4;stroke-dasharray:none;stroke-opacity:1"
       d="m 396.45558,245.80241 0,9.923 -2.28155,0 0,2.7796 -39.21409,0.0288 0,-2.77959 -2.28157,0 0,-9.92301 2.25305,0 0.0143,-14.1844 -2.2673,0.016 0,-9.92297 2.28155,0 0,-2.7796 39.21409,-0.0288 0,2.7796 2.28157,0 0,9.92297 -2.25305,0 -0.0143,14.1844 z"
       id="path2985-9-43-2-5"
       inkscape:connector-curvature="0"
       sodipodi:nodetypes="ccccccccccccccccccccc" /><path
       style="fill:none;stroke:#ff0000;stroke-width:0.02834646;stroke-linecap:butt;stroke-linejoin:miter;stroke-miterlimit:4;stroke-dasharray:none;stroke-opacity:1"
       d="m 396.45558,193.36148 0,9.92296 -2.28155,0 0,2.7796 -39.21409,0.0288 0,-2.77959 -2.28157,0 0,-9.92297 2.25305,0 0.0143,-14.1844 -2.2673,0.016 0,-9.92296 2.28155,0 0,-2.7796 39.21409,-0.0288 0,2.7796 2.28157,0 0,9.92296 -2.25305,0 -0.0143,14.1844 z"
       id="path2985-9-595-6-8"
       inkscape:connector-curvature="0"
       sodipodi:nodetypes="ccccccccccccccccccccc" /><path
       style="fill:none;stroke:#ff0000;stroke-width:0.02834646;stroke-linecap:butt;stroke-linejoin:miter;stroke-miterlimit:4;stroke-dasharray:none;stroke-opacity:1"
       d="m 396.45558,140.92052 0,9.923 -2.28155,0 0,2.7796 -39.21409,0.0288 0,-2.77959 -2.28157,0 0,-9.92301 2.25305,0 0.0143,-14.1844 -2.2673,0.016 0,-9.92297 2.28155,0 0,-2.7796 39.21409,-0.0288 0,2.77961 2.28157,0 0,9.92296 -2.25305,0 -0.0143,14.1844 z"
       id="path2985-9-8-8-7"
       inkscape:connector-curvature="0"
       sodipodi:nodetypes="ccccccccccccccccccccc" /><path
       style="fill:none;stroke:#ff0000;stroke-width:0.02834646;stroke-linecap:butt;stroke-linejoin:miter;stroke-miterlimit:4;stroke-dasharray:none;stroke-opacity:1"
       d="m 396.45558,88.479566 0,9.923003 -2.28155,0 0,2.779601 -39.21409,0.0288 0,-2.779597 -2.28157,0 0,-9.923002 2.25305,0 0.0143,-14.184406 -2.2673,0.016 0,-9.922961 2.28155,0 0,-2.779593 39.21409,-0.0288 0,2.779609 2.28157,0 0,9.922944 -2.25305,0 -0.0143,14.184406 z"
       id="path2985-9-2-7-1"
       inkscape:connector-curvature="0"
       sodipodi:nodetypes="ccccccccccccccccccccc" /><path
       style="fill:none;stroke:#ff0000;stroke-width:0.02834646;stroke-linecap:butt;stroke-linejoin:miter;stroke-miterlimit:4;stroke-dasharray:none;stroke-opacity:1"
       d="m 396.45558,296.82602 0,9.92298 -2.28155,0 0,2.7796 -39.21409,0.0288 0,-2.77959 -2.28157,0 0,-9.92299 2.25305,0 0.0143,-14.1844 -2.2673,0.016 0,-9.92296 2.28155,0 0,-2.7796 39.21409,-0.0288 0,2.77961 2.28157,0 0,9.92295 -2.25305,0 -0.0143,14.1844 z"
       id="path2985-9-43-2-6-3"
       inkscape:connector-curvature="0"
       sodipodi:nodetypes="ccccccccccccccccccccc" /><path
       style="fill:none;stroke:#ff0000;stroke-width:0.02834646;stroke-linecap:butt;stroke-linejoin:miter;stroke-miterlimit:4;stroke-dasharray:none;stroke-opacity:1"
       d="m 448.89652,309.58192 0,9.923 -2.28155,0 0,2.7796 -39.21408,0.0288 0,-2.77959 -2.28157,0 0,-9.92301 2.25305,0 0.0143,-14.18439 -2.2673,0.016 0,-9.92296 2.28155,0 0,-2.7796 39.21409,-0.0288 0,2.7796 2.28156,0 0,9.92296 -2.25304,0 -0.0143,14.18439 z"
       id="path2985-9-43-2-6-3-6"
       inkscape:connector-curvature="0"
       sodipodi:nodetypes="ccccccccccccccccccccc" /><path
       style="fill:none;stroke:#ff0000;stroke-width:0.02834646;stroke-linecap:butt;stroke-linejoin:miter;stroke-miterlimit:4;stroke-dasharray:none;stroke-opacity:1"
       d="m 139.34787,71.083386 0,-47.381131 322.96927,0 0,412.955615 c 0.0662,13.39252 0.0494,13.36596 -13.36597,13.36596 l -411.739554,0 c -14.133753,0 -14.140671,-0.0384 -14.140671,-14.14069 l 0,-364.799754 z"
       id="path4217"
       inkscape:connector-curvature="0"
       sodipodi:nodetypes="cccccsscc" /><path
       style="display:inline;fill:none;stroke:#ff0000;stroke-width:0.02834646;stroke-linecap:butt;stroke-linejoin:miter;stroke-miterlimit:4;stroke-dasharray:none;stroke-opacity:1"
       d="m 76.420223,504.82432 -2.281836,0 0,2.75247 -39.219017,0.0285 0,-2.75246 -2.281852,0 8e-6,-33.68239 2.281836,0 0,-2.75247 39.219016,-0.0285 0,2.75248 2.281845,0 z"
       id="path2985-9-51"
       inkscape:connector-curvature="0"
       sodipodi:nodetypes="ccccccccccccc" /><path
       style="display:inline;fill:none;stroke:#ff0000;stroke-width:0.02834646;stroke-linecap:butt;stroke-linejoin:miter;stroke-miterlimit:4;stroke-dasharray:none;stroke-opacity:1"
       d="m 176.12013,494.99817 0,9.82615 -2.28184,0 0,2.75247 -39.219,0.0285 0,-2.75246 -2.28186,0 0,-9.82616 2.25333,0 0.0143,-14.04596 -2.26758,0.0158 0,-9.82612 2.28184,0 0,-2.75247 39.219,-0.0285 0,2.75248 2.28186,0 0,9.82611 -2.25333,0 -0.0143,14.04596 z"
       id="path2985-9-43-41"
       inkscape:connector-curvature="0"
       sodipodi:nodetypes="ccccccccccccccccccccc" /><rect
       style="fill:none;stroke:#ff0000;stroke-width:0.03543307;stroke-miterlimit:4;stroke-dasharray:none"
       id="rect4305"
       width="456.04694"
       height="74.092834"
       x="28.131481"
       y="572.16846"
       ry="0"
       transform="matrix(0.80000001,0,0,0.80000001,0,-1.1718743e-5)" /><path
       style="display:inline;fill:none;stroke:#ff0000;stroke-width:0.02834646;stroke-linecap:butt;stroke-linejoin:miter;stroke-miterlimit:4;stroke-dasharray:none;stroke-opacity:1"
       d="m 126.81954,494.67703 0,10.07274 -2.3391,0 0,2.82154 -40.203211,0.0292 0,-2.82153 -2.339119,0 0,-10.07275 2.309881,0 0.01462,-14.39845 -2.324489,0.0162 0,-10.07271 2.339098,0 0,-2.82154 40.20321,-0.0292 0,2.82155 2.33912,0 0,10.07271 -2.30988,0 -0.0147,14.39844 z"
       id="path2985-9-43-41-7"
       inkscape:connector-curvature="0"
       sodipodi:nodetypes="ccccccccccccccccccccc" /><path
       style="display:inline;fill:none;stroke:#ff0000;stroke-width:0.02834646;stroke-linecap:butt;stroke-linejoin:miter;stroke-miterlimit:4;stroke-dasharray:none;stroke-opacity:1"
       d="m 275.19221,495.36518 0,9.54433 -2.21639,0 0,2.67353 -38.0942,0.0277 0,-2.67352 -2.21641,0 0,-9.54434 2.1887,0 0.0139,-13.64312 -2.20255,0.0153 0,-9.54431 2.21639,0 0,-2.67352 38.0942,-0.0277 0,2.67354 2.21641,0 0,9.54428 -2.18871,0 -0.0139,13.64313 z"
       id="path2985-9-43-41-8"
       inkscape:connector-curvature="0"
       sodipodi:nodetypes="ccccccccccccccccccccc" /><path
       style="display:inline;fill:none;stroke:#ff0000;stroke-width:0.02834646;stroke-linecap:butt;stroke-linejoin:miter;stroke-miterlimit:4;stroke-dasharray:none;stroke-opacity:1"
       d="m 325.04215,495.36518 0,9.54433 -2.21639,0 0,2.67353 -38.0942,0.0277 0,-2.67352 -2.21641,0 0,-9.54434 2.1887,0 0.0139,-13.64312 -2.20255,0.0153 0,-9.54431 2.21639,0 0,-2.67352 38.0942,-0.0277 0,2.67354 2.21641,0 0,9.54428 -2.18871,0 -0.0139,13.64313 z"
       id="path2985-9-43-41-3"
       inkscape:connector-curvature="0"
       sodipodi:nodetypes="ccccccccccccccccccccc" /><path
       style="display:inline;fill:none;stroke:#ff0000;stroke-width:0.02834646;stroke-linecap:butt;stroke-linejoin:miter;stroke-miterlimit:4;stroke-dasharray:none;stroke-opacity:1"
       d="m 225.52613,495.25773 0,9.62688 -2.23555,0 0,2.69663 -38.42366,0.0279 0,-2.69664 -2.23557,0 0,-9.62688 2.20763,0 0.014,-13.76112 -2.2216,0.0155 0,-9.62685 2.23555,0 0,-2.69664 38.42366,-0.0279 0,2.69666 2.23557,0 0,9.62683 -2.20763,0 -0.014,13.76112 z"
       id="path2985-9-43-41-81"
       inkscape:connector-curvature="0"
       sodipodi:nodetypes="ccccccccccccccccccccc" /><rect
       style="fill:none;stroke:#ff0000;stroke-width:0.02834646;stroke-miterlimit:4;stroke-dasharray:none"
       id="rect5175"
       width="43.840771"
       height="39.290215"
       x="331.70825"
       y="468.31476" /><rect
       style="fill:none;fill-opacity:1;stroke:#ff0000;stroke-width:0.02834646;stroke-linecap:round;stroke-linejoin:miter;stroke-miterlimit:4;stroke-dasharray:none;stroke-opacity:1"
       id="rect5206"
       width="56.201172"
       height="264.83832"
       x="468.04309"
       y="21.64929" /><path
       style="display:inline;fill:none;stroke:#ff0000;stroke-width:0.02834646;stroke-linecap:butt;stroke-linejoin:miter;stroke-miterlimit:4;stroke-dasharray:none;stroke-opacity:1"
       d="m 517.10156,211.75531 0,9.82615 -2.28184,0 0,2.75247 -39.21901,0.0285 0,-2.75246 -2.28186,0 0,-9.82616 2.25333,0 0.0143,-14.04596 -2.26758,0.0158 0,-9.82613 2.28184,0 0,-2.75247 39.21901,-0.0285 0,2.75248 2.28186,0 0,9.82612 -2.25333,0 -0.0143,14.04596 z"
       id="path2985-9-43-2-5-9"
       inkscape:connector-curvature="0"
       sodipodi:nodetypes="ccccccccccccccccccccc" /><path
       style="display:inline;fill:none;stroke:#ff0000;stroke-width:0.02834646;stroke-linecap:butt;stroke-linejoin:miter;stroke-miterlimit:4;stroke-dasharray:none;stroke-opacity:1"
       d="m 517.10156,159.31437 0,9.82611 -2.28184,0 0,2.75247 -39.21901,0.0285 0,-2.75246 -2.28186,0 0,-9.82612 2.25333,0 0.0143,-14.04596 -2.26758,0.0158 0,-9.82611 2.28184,0 0,-2.75247 39.21901,-0.0285 0,2.75248 2.28186,0 0,9.8261 -2.25333,0 -0.0143,14.04596 z"
       id="path2985-9-595-6-8-5"
       inkscape:connector-curvature="0"
       sodipodi:nodetypes="ccccccccccccccccccccc" /><path
       style="display:inline;fill:none;stroke:#ff0000;stroke-width:0.02834646;stroke-linecap:butt;stroke-linejoin:miter;stroke-miterlimit:4;stroke-dasharray:none;stroke-opacity:1"
       d="m 517.10156,107.58207 0,9.82615 -2.28184,0 0,2.75247 -39.21901,0.0285 0,-2.75246 -2.28186,0 0,-9.82616 2.25333,0 0.0143,-14.045962 -2.26758,0.01585 0,-9.826123 2.28184,0 0,-2.752464 39.21901,-0.02852 0,2.752484 2.28186,0 0,9.826103 -2.25333,0 -0.0143,14.045962 z"
       id="path2985-9-8-8-7-4"
       inkscape:connector-curvature="0"
       sodipodi:nodetypes="ccccccccccccccccccccc" /><path
       style="display:inline;fill:none;stroke:#ff0000;stroke-width:0.02834646;stroke-linecap:butt;stroke-linejoin:miter;stroke-miterlimit:4;stroke-dasharray:none;stroke-opacity:1"
       d="m 517.10156,57.2671 0,9.826155 -2.28184,0 0,2.752467 -39.21901,0.02852 0,-2.752467 -2.28186,0 0,-9.826155 2.25333,0 0.0143,-14.045965 -2.26758,0.01585 0,-9.826113 2.28184,0 0,-2.752464 39.21901,-0.02852 0,2.75248 2.28186,0 0,9.826097 -2.25333,0 -0.0143,14.045965 z"
       id="path2985-9-2-7-1-0"
       inkscape:connector-curvature="0"
       sodipodi:nodetypes="ccccccccccccccccccccc" /><path
       style="display:inline;fill:none;stroke:#ff0000;stroke-width:0.02834646;stroke-linecap:butt;stroke-linejoin:miter;stroke-miterlimit:4;stroke-dasharray:none;stroke-opacity:1"
       d="m 517.10156,263.48758 0,9.82612 -2.28184,0 0,2.75247 -39.21901,0.0285 0,-2.75246 -2.28186,0 0,-9.82613 2.25333,0 0.0143,-14.04596 -2.26758,0.0158 0,-9.82611 2.28184,0 0,-2.75247 39.21901,-0.0285 0,2.75247 2.28186,0 0,9.82611 -2.25333,0 -0.0143,14.04596 z"
       id="path2985-9-43-2-6-3-2"
       inkscape:connector-curvature="0"
       sodipodi:nodetypes="ccccccccccccccccccccc" /></g></svg>