<?xml version="1.0" encoding="UTF-8" standalone="no"?>
<!-- Generator: Adobe Illustrator 15.0.0, SVG Export Plug-In . SVG Version: 6.00 Build 0)  -->

<svg
   xmlns:dc="http://purl.org/dc/elements/1.1/"
   xmlns:cc="http://creativecommons.org/ns#"
   xmlns:rdf="http://www.w3.org/1999/02/22-rdf-syntax-ns#"
   xmlns:svg="http://www.w3.org/2000/svg"
   xmlns="http://www.w3.org/2000/svg"
   xmlns:sodipodi="http://sodipodi.sourceforge.net/DTD/sodipodi-0.dtd"
   xmlns:inkscape="http://www.inkscape.org/namespaces/inkscape"
   version="1.1"
   x="0px"
   y="0px"
   width="1417.322px"
   height="708.661px"
   viewBox="0 0 1417.322 708.661"
   enable-background="new 0 0 1417.322 708.661"
   xml:space="preserve"
   id="svg2"
   inkscape:version="0.48.4 r9939"
   sodipodi:docname="ENTER COLOUR | CODE_ENTER THICKNESS_500mmx250mm_ENTER DRAWING NAME.svg"><metadata
     id="metadata2224"><rdf:RDF><cc:Work
         rdf:about=""><dc:format>image/svg+xml</dc:format><dc:type
           rdf:resource="http://purl.org/dc/dcmitype/StillImage" /><dc:title></dc:title></cc:Work></rdf:RDF></metadata><defs
     id="defs2222" /><sodipodi:namedview
     pagecolor="#ffffff"
     bordercolor="#666666"
     borderopacity="1"
     objecttolerance="10"
     gridtolerance="10"
     guidetolerance="10"
     inkscape:pageopacity="0"
     inkscape:pageshadow="2"
     inkscape:window-width="1279"
     inkscape:window-height="1390"
     id="namedview2220"
     showgrid="false"
     inkscape:zoom="0.76482266"
     inkscape:cx="754.01084"
     inkscape:cy="278.34182"
     inkscape:window-x="0"
     inkscape:window-y="0"
     inkscape:window-maximized="0"
     inkscape:current-layer="svg2" /><g
     id="Your_drawing" /><path
     style="fill:none;stroke:#ff0000;stroke-width:0.03543307;stroke-linecap:butt;stroke-linejoin:miter;stroke-miterlimit:4;stroke-opacity:1;stroke-dasharray:none"
     d="m 128.79124,343.75262 0,12.40199 -2.88,0 0,3.474 -49.499964,0.036 0,-3.474 -2.88002,0 0,-12.40199 2.84402,0 0.018,-17.728 -2.86201,0.02 0,-12.40195 2.88,0 0,-3.474 49.499954,-0.036 0,3.47402 2.88002,0 0,12.40195 -2.84402,0 -0.018,17.728 z"
     id="path2985-9"
     inkscape:connector-curvature="0"
     sodipodi:nodetypes="ccccccccccccccccccccc" /><path
     style="fill:none;stroke:#ff0000;stroke-width:0.03543307;stroke-linecap:butt;stroke-linejoin:miter;stroke-miterlimit:4;stroke-opacity:1;stroke-dasharray:none"
     d="m 192.57075,343.75262 0,12.40199 -2.88,0 0,3.474 -49.49995,0.036 0,-3.474 -2.88002,0 0,-12.40199 2.84402,0 0.018,-17.728 -2.86201,0.02 0,-12.40195 2.88,0 0,-3.47397 49.49995,-0.036 0,3.47397 2.88002,0 0,12.40195 -2.84402,0 -0.018,17.728 z"
     id="path2985-9-5"
     inkscape:connector-curvature="0"
     sodipodi:nodetypes="ccccccccccccccccccccc" /><path
     style="fill:none;stroke:#ff0000;stroke-width:0.03543307;stroke-linecap:butt;stroke-linejoin:miter;stroke-miterlimit:4;stroke-opacity:1;stroke-dasharray:none"
     d="m 192.57075,279.97311 0,12.40196 -2.88,0 0,3.474 -49.49995,0.036 0,-3.474 -2.88002,0 0,-12.40196 2.84402,0 0.018,-17.728 -2.86201,0.02 0,-12.40195 2.88,0 0,-3.474 49.49995,-0.036 0,3.47402 2.88002,0 0,12.40193 -2.84402,0 -0.018,17.728 z"
     id="path2985-9-4"
     inkscape:connector-curvature="0"
     sodipodi:nodetypes="ccccccccccccccccccccc" /><path
     style="fill:none;stroke:#ff0000;stroke-width:0.03543307;stroke-linecap:butt;stroke-linejoin:miter;stroke-miterlimit:4;stroke-opacity:1;stroke-dasharray:none"
     d="m 128.79123,279.97309 0,12.402 -2.88,0 0,3.474 -49.499954,0.036 0,-3.474 -2.88002,0 0,-12.402 2.84402,0 0.018,-17.728 -2.86201,0.02 0,-12.40195 2.88,0 0,-3.474 49.499954,-0.036 0,3.47402 2.88002,0 0,12.40193 -2.84402,0 -0.018,17.728 z"
     id="path2985-9-48"
     inkscape:connector-curvature="0"
     sodipodi:nodetypes="ccccccccccccccccccccc" /><path
     style="fill:none;stroke:#ff0000;stroke-width:0.03543307;stroke-linecap:butt;stroke-linejoin:miter;stroke-miterlimit:4;stroke-opacity:1;stroke-dasharray:none"
     d="m 192.57075,216.19356 0,12.402 -2.88,0 0,3.474 -49.49995,0.036 0,-3.474 -2.88002,0 0,-12.402 2.84402,0 0.018,-17.728 -2.86201,0.02 0,-12.40195 2.88,0 0,-3.474 49.49995,-0.036 0,3.47402 2.88002,0 0,12.40193 -2.84402,0 -0.018,17.728 z"
     id="path2985-9-59"
     inkscape:connector-curvature="0"
     sodipodi:nodetypes="ccccccccccccccccccccc" /><path
     style="fill:none;stroke:#ff0000;stroke-width:0.03543307;stroke-linecap:butt;stroke-linejoin:miter;stroke-miterlimit:4;stroke-opacity:1;stroke-dasharray:none"
     d="m 128.79123,216.19356 0,12.402 -2.88,0 0,3.474 -49.499954,0.036 0,-3.474 -2.88002,0 0,-12.402 2.84402,0 0.018,-17.728 -2.86201,0.02 0,-12.40195 2.88,0 0,-3.474 49.499954,-0.036 0,3.47402 2.88002,0 0,12.40193 -2.84402,0 -0.018,17.728 z"
     id="path2985-9-1"
     inkscape:connector-curvature="0"
     sodipodi:nodetypes="ccccccccccccccccccccc" /><path
     style="fill:none;stroke:#ff0000;stroke-width:0.03543307;stroke-linecap:butt;stroke-linejoin:miter;stroke-miterlimit:4;stroke-opacity:1;stroke-dasharray:none"
     d="m 128.79124,152.41403 0,12.402 -2.88,0 0,3.474 -49.499964,0.036 0,-3.474 -2.88002,0 0,-12.402 2.84402,0 0.018,-17.728 -2.86201,0.02 0,-12.40195 2.88,0 0,-3.474 49.499964,-0.036 0,3.47402 2.88002,0 0,12.40193 -2.84402,0 -0.018,17.728 z"
     id="path2985-9-42"
     inkscape:connector-curvature="0"
     sodipodi:nodetypes="ccccccccccccccccccccc" /><path
     style="fill:none;stroke:#ff0000;stroke-width:0.03543307;stroke-linecap:butt;stroke-linejoin:miter;stroke-miterlimit:4;stroke-opacity:1;stroke-dasharray:none"
     d="m 192.57075,152.41403 0,12.402 -2.88,0 0,3.474 -49.49995,0.036 0,-3.474 -2.88002,0 0,-12.402 2.84402,0 0.018,-17.728 -2.862,0.02 0,-12.40195 2.88,0 0,-3.474 49.49994,-0.036 0,3.47402 2.88002,0 0,12.40193 -2.84402,0 -0.018,17.728 z"
     id="path2985-9-7"
     inkscape:connector-curvature="0"
     sodipodi:nodetypes="ccccccccccccccccccccc" /><path
     style="fill:none;stroke:#ff0000;stroke-width:0.03543307;stroke-linecap:butt;stroke-linejoin:miter;stroke-miterlimit:4;stroke-opacity:1;stroke-dasharray:none"
     d="m 256.35027,343.75262 0,12.40199 -2.88,0 0,3.474 -49.49996,0.036 0,-3.474 -2.88002,0 0,-12.40199 2.84402,0 0.018,-17.728 -2.86201,0.02 0,-12.40196 2.88,0 0,-3.474 49.49996,-0.036 0,3.47402 2.88002,0 0,12.40194 -2.84402,0 -0.018,17.728 z"
     id="path2985-9-43"
     inkscape:connector-curvature="0"
     sodipodi:nodetypes="ccccccccccccccccccccc" /><path
     style="fill:none;stroke:#ff0000;stroke-width:0.03543307;stroke-linecap:butt;stroke-linejoin:miter;stroke-miterlimit:4;stroke-opacity:1;stroke-dasharray:none"
     d="m 256.35027,279.97311 0,12.40196 -2.88,0 0,3.474 -49.49996,0.036 0,-3.474 -2.88002,0 0,-12.40196 2.84402,0 0.018,-17.728 -2.86201,0.02 0,-12.40195 2.88,0 0,-3.474 49.49996,-0.036 0,3.47402 2.88002,0 0,12.40193 -2.84402,0 -0.018,17.728 z"
     id="path2985-9-595"
     inkscape:connector-curvature="0"
     sodipodi:nodetypes="ccccccccccccccccccccc" /><path
     style="fill:none;stroke:#ff0000;stroke-width:0.03543307;stroke-linecap:butt;stroke-linejoin:miter;stroke-miterlimit:4;stroke-opacity:1;stroke-dasharray:none"
     d="m 256.35027,216.19356 0,12.402 -2.88,0 0,3.474 -49.49996,0.036 0,-3.474 -2.88002,0 0,-12.402 2.84402,0 0.018,-17.728 -2.86201,0.02 0,-12.40195 2.88,0 0,-3.474 49.49996,-0.036 0,3.47402 2.88002,0 0,12.40193 -2.84402,0 -0.018,17.728 z"
     id="path2985-9-8"
     inkscape:connector-curvature="0"
     sodipodi:nodetypes="ccccccccccccccccccccc" /><path
     style="fill:none;stroke:#ff0000;stroke-width:0.03543307;stroke-linecap:butt;stroke-linejoin:miter;stroke-miterlimit:4;stroke-opacity:1;stroke-dasharray:none"
     d="m 256.35027,152.41403 0,12.402 -2.88,0 0,3.474 -49.49996,0.036 0,-3.474 -2.88002,0 0,-12.402 2.84402,0 0.018,-17.728 -2.86201,0.02 0,-12.40195 2.88,0 0,-3.474 49.49996,-0.036 0,3.47402 2.88002,0 0,12.40193 -2.84402,0 -0.018,17.728 z"
     id="path2985-9-2"
     inkscape:connector-curvature="0"
     sodipodi:nodetypes="ccccccccccccccccccccc" /><path
     style="fill:none;stroke:#ff0000;stroke-width:0.03543307;stroke-linecap:butt;stroke-linejoin:miter;stroke-miterlimit:4;stroke-opacity:1;stroke-dasharray:none"
     d="m 320.1298,295.918 0,12.402 -2.88,0 0,3.474 -49.49996,0.036 0,-3.474 -2.88002,0 0,-12.402 2.84402,0 0.018,-17.728 -2.86201,0.02 0,-12.402 2.88,0 0,-3.474 49.49996,-0.036 0,3.474 2.88002,0 0,12.402 -2.84402,0 -0.018,17.728 z"
     id="path2985-9-43-5"
     inkscape:connector-curvature="0"
     sodipodi:nodetypes="ccccccccccccccccccccc" /><path
     style="fill:none;stroke:#ff0000;stroke-width:0.03543307;stroke-linecap:butt;stroke-linejoin:miter;stroke-miterlimit:4;stroke-opacity:1;stroke-dasharray:none"
     d="m 320.1298,232.13845 0,12.40195 -2.88,0 0,3.474 -49.49996,0.036 0,-3.474 -2.88002,0 0,-12.40195 2.84402,0 0.018,-17.728 -2.86201,0.02 0,-12.40195 2.88,0 0,-3.474 49.49996,-0.036 0,3.47402 2.88002,0 0,12.40193 -2.84402,0 -0.018,17.728 z"
     id="path2985-9-595-5"
     inkscape:connector-curvature="0"
     sodipodi:nodetypes="ccccccccccccccccccccc" /><path
     style="fill:none;stroke:#ff0000;stroke-width:0.03543307;stroke-linecap:butt;stroke-linejoin:miter;stroke-miterlimit:4;stroke-opacity:1;stroke-dasharray:none"
     d="m 320.1298,168.3589 0,12.402 -2.88,0 0,3.474 -49.49996,0.036 0,-3.474 -2.88002,0 0,-12.402 2.84402,0 0.018,-17.728 -2.86201,0.02 0,-12.40195 2.88,0 0,-3.474 49.49996,-0.036 0,3.47402 2.88002,0 0,12.40193 -2.84402,0 -0.018,17.728 z"
     id="path2985-9-8-4"
     inkscape:connector-curvature="0"
     sodipodi:nodetypes="ccccccccccccccccccccc" /><path
     style="fill:none;stroke:#ff0000;stroke-width:0.03543307;stroke-linecap:butt;stroke-linejoin:miter;stroke-miterlimit:4;stroke-opacity:1;stroke-dasharray:none"
     d="m 320.1298,104.57937 0,12.402 -2.88,0 0,3.474 -49.49996,0.036 0,-3.474 -2.88002,0 0,-12.402 2.84402,0 0.018,-17.727997 -2.86201,0.02 0,-12.40195 2.88,0 0,-3.473999 49.49996,-0.036 0,3.474019 2.88002,0 0,12.40193 -2.84402,0 -0.018,17.727997 z"
     id="path2985-9-2-9"
     inkscape:connector-curvature="0"
     sodipodi:nodetypes="ccccccccccccccccccccc" /><path
     style="fill:none;stroke:#ff0000;stroke-width:0.03543307;stroke-linecap:butt;stroke-linejoin:miter;stroke-miterlimit:4;stroke-opacity:1;stroke-dasharray:none"
     d="m 383.90933,279.97309 0,12.402 -2.87999,0 0,3.474 -49.49997,0.036 0,-3.474 -2.88002,0 0,-12.402 2.84402,0 0.018,-17.728 -2.86201,0.02 0,-12.40196 2.88,0 0,-3.474 49.49997,-0.036 0,3.47402 2.88001,0 0,12.40194 -2.84401,0 -0.018,17.728 z"
     id="path2985-9-43-4"
     inkscape:connector-curvature="0"
     sodipodi:nodetypes="ccccccccccccccccccccc" /><path
     style="fill:none;stroke:#ff0000;stroke-width:0.03543307;stroke-linecap:butt;stroke-linejoin:miter;stroke-miterlimit:4;stroke-opacity:1;stroke-dasharray:none"
     d="m 383.90933,216.19358 0,12.40196 -2.87999,0 0,3.474 -49.49997,0.036 0,-3.474 -2.88002,0 0,-12.40196 2.84402,0 0.018,-17.728 -2.86201,0.02 0,-12.40195 2.88,0 0,-3.474 49.49997,-0.036 0,3.47402 2.88001,0 0,12.40193 -2.84401,0 -0.018,17.728 z"
     id="path2985-9-595-2"
     inkscape:connector-curvature="0"
     sodipodi:nodetypes="ccccccccccccccccccccc" /><path
     style="fill:none;stroke:#ff0000;stroke-width:0.03543307;stroke-linecap:butt;stroke-linejoin:miter;stroke-miterlimit:4;stroke-opacity:1;stroke-dasharray:none"
     d="m 383.90933,152.41403 0,12.402 -2.87999,0 0,3.474 -49.49997,0.036 0,-3.474 -2.88002,0 0,-12.402 2.84402,0 0.018,-17.728 -2.86201,0.02 0,-12.40195 2.88,0 0,-3.474 49.49997,-0.036 0,3.47402 2.88001,0 0,12.40193 -2.84401,0 -0.018,17.728 z"
     id="path2985-9-8-3"
     inkscape:connector-curvature="0"
     sodipodi:nodetypes="ccccccccccccccccccccc" /><path
     style="fill:none;stroke:#ff0000;stroke-width:0.03543307;stroke-linecap:butt;stroke-linejoin:miter;stroke-miterlimit:4;stroke-opacity:1;stroke-dasharray:none"
     d="m 383.90933,88.634503 0,12.401997 -2.87999,0 0,3.474 -49.49997,0.036 0,-3.474 -2.88002,0 0,-12.401997 2.84402,0 0.018,-17.727999 -2.86201,0.02 0,-12.40195 2.88,0 0,-3.474 49.49997,-0.036 0,3.47402 2.88001,0 0,12.40193 -2.84401,0 -0.018,17.727999 z"
     id="path2985-9-2-8"
     inkscape:connector-curvature="0"
     sodipodi:nodetypes="ccccccccccccccccccccc" /><path
     style="fill:none;stroke:#ff0000;stroke-width:0.03543307;stroke-linecap:butt;stroke-linejoin:miter;stroke-miterlimit:4;stroke-opacity:1;stroke-dasharray:none"
     d="m 447.68885,295.91797 0,12.402 -2.88,0 0,3.474 -49.49996,0.036 0,-3.474 -2.88002,0 0,-12.402 2.84402,0 0.018,-17.728 -2.86201,0.02 0,-12.40196 2.88,0 0,-3.474 49.49996,-0.036 0,3.47402 2.88002,0 0,12.40194 -2.84402,0 -0.018,17.728 z"
     id="path2985-9-43-2"
     inkscape:connector-curvature="0"
     sodipodi:nodetypes="ccccccccccccccccccccc" /><path
     style="fill:none;stroke:#ff0000;stroke-width:0.03543307;stroke-linecap:butt;stroke-linejoin:miter;stroke-miterlimit:4;stroke-opacity:1;stroke-dasharray:none"
     d="m 447.68885,232.13846 0,12.40196 -2.88,0 0,3.474 -49.49996,0.036 0,-3.474 -2.88002,0 0,-12.40196 2.84402,0 0.018,-17.728 -2.86201,0.02 0,-12.40195 2.88,0 0,-3.474 49.49996,-0.036 0,3.47402 2.88002,0 0,12.40193 -2.84402,0 -0.018,17.728 z"
     id="path2985-9-595-6"
     inkscape:connector-curvature="0"
     sodipodi:nodetypes="ccccccccccccccccccccc" /><path
     style="fill:none;stroke:#ff0000;stroke-width:0.03543307;stroke-linecap:butt;stroke-linejoin:miter;stroke-miterlimit:4;stroke-opacity:1;stroke-dasharray:none"
     d="m 447.68885,168.35891 0,12.402 -2.88,0 0,3.474 -49.49996,0.036 0,-3.474 -2.88002,0 0,-12.402 2.84402,0 0.018,-17.728 -2.86201,0.02 0,-12.40195 2.88,0 0,-3.474 49.49996,-0.036 0,3.47402 2.88002,0 0,12.40193 -2.84402,0 -0.018,17.728 z"
     id="path2985-9-8-8"
     inkscape:connector-curvature="0"
     sodipodi:nodetypes="ccccccccccccccccccccc" /><path
     style="fill:none;stroke:#ff0000;stroke-width:0.03543307;stroke-linecap:butt;stroke-linejoin:miter;stroke-miterlimit:4;stroke-opacity:1;stroke-dasharray:none"
     d="m 447.68885,104.57938 0,12.402 -2.88,0 0,3.474 -49.49996,0.036 0,-3.474 -2.88002,0 0,-12.402 2.84402,0 0.018,-17.727997 -2.86201,0.02 0,-12.40195 2.88,0 0,-3.473999 49.49996,-0.036 0,3.474019 2.88002,0 0,12.40193 -2.84402,0 -0.018,17.727997 z"
     id="path2985-9-2-7"
     inkscape:connector-curvature="0"
     sodipodi:nodetypes="ccccccccccccccccccccc" /><path
     style="fill:none;stroke:#ff0000;stroke-width:0.03543307;stroke-linecap:butt;stroke-linejoin:miter;stroke-miterlimit:4;stroke-opacity:1;stroke-dasharray:none"
     d="m 447.68885,359.69749 0,12.402 -2.88,0 0,3.474 -49.49996,0.036 0,-3.474 -2.88002,0 0,-12.402 2.84402,0 0.018,-17.72799 -2.86201,0.02 0,-12.40196 2.88,0 0,-3.474 49.49996,-0.036 0,3.47402 2.88002,0 0,12.40194 -2.84402,0 -0.018,17.72799 z"
     id="path2985-9-43-2-6"
     inkscape:connector-curvature="0"
     sodipodi:nodetypes="ccccccccccccccccccccc" /><path
     style="fill:none;stroke:#ff0000;stroke-width:0.03543307;stroke-linecap:butt;stroke-linejoin:miter;stroke-miterlimit:4;stroke-opacity:1;stroke-dasharray:none"
     d="m 511.46838,311.86285 0,12.402 -2.88,0 0,3.474 -49.49996,0.036 0,-3.474 -2.88002,0 0,-12.402 2.84402,0 0.018,-17.728 -2.86201,0.02 0,-12.40196 2.88,0 0,-3.474 49.49996,-0.036 0,3.47402 2.88002,0 0,12.40194 -2.84402,0 -0.018,17.728 z"
     id="path2985-9-43-2-5"
     inkscape:connector-curvature="0"
     sodipodi:nodetypes="ccccccccccccccccccccc" /><path
     style="fill:none;stroke:#ff0000;stroke-width:0.03543307;stroke-linecap:butt;stroke-linejoin:miter;stroke-miterlimit:4;stroke-opacity:1;stroke-dasharray:none"
     d="m 511.46838,248.08334 0,12.40196 -2.88,0 0,3.474 -49.49996,0.036 0,-3.474 -2.88002,0 0,-12.40196 2.84402,0 0.018,-17.728 -2.86201,0.02 0,-12.40195 2.88,0 0,-3.474 49.49996,-0.036 0,3.47402 2.88002,0 0,12.40193 -2.84402,0 -0.018,17.728 z"
     id="path2985-9-595-6-8"
     inkscape:connector-curvature="0"
     sodipodi:nodetypes="ccccccccccccccccccccc" /><path
     style="fill:none;stroke:#ff0000;stroke-width:0.03543307;stroke-linecap:butt;stroke-linejoin:miter;stroke-miterlimit:4;stroke-opacity:1;stroke-dasharray:none"
     d="m 511.46838,184.30379 0,12.402 -2.88,0 0,3.474 -49.49996,0.036 0,-3.474 -2.88002,0 0,-12.402 2.84402,0 0.018,-17.728 -2.86201,0.02 0,-12.40195 2.88,0 0,-3.474 49.49996,-0.036 0,3.47402 2.88002,0 0,12.40193 -2.84402,0 -0.018,17.728 z"
     id="path2985-9-8-8-7"
     inkscape:connector-curvature="0"
     sodipodi:nodetypes="ccccccccccccccccccccc" /><path
     style="fill:none;stroke:#ff0000;stroke-width:0.03543307;stroke-linecap:butt;stroke-linejoin:miter;stroke-miterlimit:4;stroke-opacity:1;stroke-dasharray:none"
     d="m 511.46838,120.52426 0,12.402 -2.88,0 0,3.474 -49.49996,0.036 0,-3.474 -2.88002,0 0,-12.402 2.84402,0 0.018,-17.728 -2.86201,0.02 0,-12.401947 2.88,0 0,-3.474 49.49996,-0.036 0,3.47402 2.88002,0 0,12.401927 -2.84402,0 -0.018,17.728 z"
     id="path2985-9-2-7-1"
     inkscape:connector-curvature="0"
     sodipodi:nodetypes="ccccccccccccccccccccc" /><path
     style="fill:none;stroke:#ff0000;stroke-width:0.03543307;stroke-linecap:butt;stroke-linejoin:miter;stroke-miterlimit:4;stroke-opacity:1;stroke-dasharray:none"
     d="m 511.46838,375.64237 0,12.40197 -2.88,0 0,3.474 -49.49996,0.036 0,-3.474 -2.88002,0 0,-12.40197 2.84402,0 0.018,-17.728 -2.86201,0.02 0,-12.40195 2.88,0 0,-3.474 49.49996,-0.036 0,3.47402 2.88002,0 0,12.40193 -2.84402,0 -0.018,17.728 z"
     id="path2985-9-43-2-6-3"
     inkscape:connector-curvature="0"
     sodipodi:nodetypes="ccccccccccccccccccccc" /><path
     style="fill:none;stroke:#ff0000;stroke-width:0.03543307;stroke-linecap:butt;stroke-linejoin:miter;stroke-miterlimit:4;stroke-opacity:1;stroke-dasharray:none"
     d="m 575.24791,391.58724 0,12.402 -2.88,0 0,3.474 -49.49996,0.036 0,-3.474 -2.88002,0 0,-12.402 2.84402,0 0.018,-17.72798 -2.86201,0.02 0,-12.40196 2.88,0 0,-3.474 49.49996,-0.036 0,3.47402 2.88002,0 0,12.40194 -2.84402,0 -0.018,17.72798 z"
     id="path2985-9-43-2-6-3-6"
     inkscape:connector-curvature="0"
     sodipodi:nodetypes="ccccccccccccccccccccc" /><path
     style="fill:none;stroke:#ff0000;stroke-width:0.03543307;stroke-linecap:butt;stroke-linejoin:miter;stroke-miterlimit:4;stroke-opacity:1;stroke-dasharray:none"
     d="m 198.67275,98.780283 0,-59.226412 393.08167,0 0,532.901959 -538.427824,0 0,-473.675547 z"
     id="path4217"
     inkscape:connector-curvature="0"
     sodipodi:nodetypes="ccccccc" /><path
     style="fill:none;stroke:#ff0000;stroke-width:0.03543307;stroke-linecap:butt;stroke-linejoin:miter;stroke-miterlimit:4;stroke-opacity:1;stroke-dasharray:none"
     d="m 1269.9103,343.31069 0,12.40199 2.88,0 0,3.474 49.4999,0.036 0,-3.474 2.88,0 0,-12.40199 -2.844,0 -0.018,-17.728 2.862,0.02 0,-12.40195 -2.88,0 0,-3.474 -49.4999,-0.036 0,3.47402 -2.88,0 0,12.40195 2.844,0 0.018,17.728 z"
     id="path2985-9-12"
     inkscape:connector-curvature="0"
     sodipodi:nodetypes="ccccccccccccccccccccc" /><path
     style="fill:none;stroke:#ff0000;stroke-width:0.03543307;stroke-linecap:butt;stroke-linejoin:miter;stroke-miterlimit:4;stroke-opacity:1;stroke-dasharray:none"
     d="m 1206.1308,343.31069 0,12.40199 2.88,0 0,3.474 49.4999,0.036 0,-3.474 2.88,0 0,-12.40199 -2.844,0 -0.018,-17.728 2.862,0.02 0,-12.40195 -2.88,0 0,-3.47397 -49.4999,-0.036 0,3.47397 -2.8801,0 0,12.40195 2.8441,0 0.018,17.728 z"
     id="path2985-9-5-5"
     inkscape:connector-curvature="0"
     sodipodi:nodetypes="ccccccccccccccccccccc" /><path
     style="fill:none;stroke:#ff0000;stroke-width:0.03543307;stroke-linecap:butt;stroke-linejoin:miter;stroke-miterlimit:4;stroke-opacity:1;stroke-dasharray:none"
     d="m 1206.1308,279.53118 0,12.40196 2.88,0 0,3.474 49.4999,0.036 0,-3.474 2.88,0 0,-12.40196 -2.844,0 -0.018,-17.728 2.862,0.02 0,-12.40195 -2.88,0 0,-3.474 -49.4999,-0.036 0,3.47402 -2.8801,0 0,12.40193 2.8441,0 0.018,17.728 z"
     id="path2985-9-4-0"
     inkscape:connector-curvature="0"
     sodipodi:nodetypes="ccccccccccccccccccccc" /><path
     style="fill:none;stroke:#ff0000;stroke-width:0.03543307;stroke-linecap:butt;stroke-linejoin:miter;stroke-miterlimit:4;stroke-opacity:1;stroke-dasharray:none"
     d="m 1269.9103,279.53116 0,12.402 2.88,0 0,3.474 49.4999,0.036 0,-3.474 2.88,0 0,-12.402 -2.844,0 -0.018,-17.728 2.862,0.02 0,-12.40195 -2.88,0 0,-3.474 -49.4999,-0.036 0,3.47402 -2.88,0 0,12.40193 2.844,0 0.018,17.728 z"
     id="path2985-9-48-8"
     inkscape:connector-curvature="0"
     sodipodi:nodetypes="ccccccccccccccccccccc" /><path
     style="fill:none;stroke:#ff0000;stroke-width:0.03543307;stroke-linecap:butt;stroke-linejoin:miter;stroke-miterlimit:4;stroke-opacity:1;stroke-dasharray:none"
     d="m 1206.1308,215.75163 0,12.402 2.88,0 0,3.474 49.4999,0.036 0,-3.474 2.88,0 0,-12.402 -2.844,0 -0.018,-17.728 2.862,0.02 0,-12.40195 -2.88,0 0,-3.474 -49.4999,-0.036 0,3.47402 -2.8801,0 0,12.40193 2.8441,0 0.018,17.728 z"
     id="path2985-9-59-9"
     inkscape:connector-curvature="0"
     sodipodi:nodetypes="ccccccccccccccccccccc" /><path
     style="fill:none;stroke:#ff0000;stroke-width:0.03543307;stroke-linecap:butt;stroke-linejoin:miter;stroke-miterlimit:4;stroke-opacity:1;stroke-dasharray:none"
     d="m 1269.9103,215.75163 0,12.402 2.88,0 0,3.474 49.4999,0.036 0,-3.474 2.88,0 0,-12.402 -2.844,0 -0.018,-17.728 2.862,0.02 0,-12.40195 -2.88,0 0,-3.474 -49.4999,-0.036 0,3.47402 -2.88,0 0,12.40193 2.844,0 0.018,17.728 z"
     id="path2985-9-1-8"
     inkscape:connector-curvature="0"
     sodipodi:nodetypes="ccccccccccccccccccccc" /><path
     style="fill:none;stroke:#ff0000;stroke-width:0.03543307;stroke-linecap:butt;stroke-linejoin:miter;stroke-miterlimit:4;stroke-opacity:1;stroke-dasharray:none"
     d="m 1269.9103,151.9721 0,12.402 2.88,0 0,3.474 49.4999,0.036 0,-3.474 2.88,0 0,-12.402 -2.844,0 -0.018,-17.728 2.862,0.02 0,-12.40195 -2.88,0 0,-3.474 -49.4999,-0.036 0,3.47402 -2.88,0 0,12.40193 2.844,0 0.018,17.728 z"
     id="path2985-9-42-2"
     inkscape:connector-curvature="0"
     sodipodi:nodetypes="ccccccccccccccccccccc" /><path
     style="fill:none;stroke:#ff0000;stroke-width:0.03543307;stroke-linecap:butt;stroke-linejoin:miter;stroke-miterlimit:4;stroke-opacity:1;stroke-dasharray:none"
     d="m 1206.1308,151.9721 0,12.402 2.88,0 0,3.474 49.4999,0.036 0,-3.474 2.88,0 0,-12.402 -2.844,0 -0.018,-17.728 2.862,0.02 0,-12.40195 -2.88,0 0,-3.474 -49.4999,-0.036 0,3.47402 -2.8801,0 0,12.40193 2.8441,0 0.018,17.728 z"
     id="path2985-9-7-7"
     inkscape:connector-curvature="0"
     sodipodi:nodetypes="ccccccccccccccccccccc" /><path
     style="fill:none;stroke:#ff0000;stroke-width:0.03543307;stroke-linecap:butt;stroke-linejoin:miter;stroke-miterlimit:4;stroke-opacity:1;stroke-dasharray:none"
     d="m 1142.3513,343.31068 0,12.40199 2.88,0 0,3.474 49.4999,0.036 0,-3.474 2.88,0 0,-12.40199 -2.844,0 -0.018,-17.72799 2.862,0.02 0,-12.40196 -2.88,0 0,-3.474 -49.4999,-0.036 0,3.47402 -2.88,0 0,12.40194 2.844,0 0.018,17.72799 z"
     id="path2985-9-43-7"
     inkscape:connector-curvature="0"
     sodipodi:nodetypes="ccccccccccccccccccccc" /><path
     style="fill:none;stroke:#ff0000;stroke-width:0.03543307;stroke-linecap:butt;stroke-linejoin:miter;stroke-miterlimit:4;stroke-opacity:1;stroke-dasharray:none"
     d="m 1142.3513,279.53118 0,12.40196 2.88,0 0,3.474 49.4999,0.036 0,-3.474 2.88,0 0,-12.40196 -2.844,0 -0.018,-17.728 2.862,0.02 0,-12.40195 -2.88,0 0,-3.474 -49.4999,-0.036 0,3.47402 -2.88,0 0,12.40193 2.844,0 0.018,17.728 z"
     id="path2985-9-595-8"
     inkscape:connector-curvature="0"
     sodipodi:nodetypes="ccccccccccccccccccccc" /><path
     style="fill:none;stroke:#ff0000;stroke-width:0.03543307;stroke-linecap:butt;stroke-linejoin:miter;stroke-miterlimit:4;stroke-opacity:1;stroke-dasharray:none"
     d="m 1142.3513,215.75163 0,12.402 2.88,0 0,3.474 49.4999,0.036 0,-3.474 2.88,0 0,-12.402 -2.844,0 -0.018,-17.728 2.862,0.02 0,-12.40195 -2.88,0 0,-3.474 -49.4999,-0.036 0,3.47402 -2.88,0 0,12.40193 2.844,0 0.018,17.728 z"
     id="path2985-9-8-0"
     inkscape:connector-curvature="0"
     sodipodi:nodetypes="ccccccccccccccccccccc" /><path
     style="fill:none;stroke:#ff0000;stroke-width:0.03543307;stroke-linecap:butt;stroke-linejoin:miter;stroke-miterlimit:4;stroke-opacity:1;stroke-dasharray:none"
     d="m 1142.3513,151.9721 0,12.402 2.88,0 0,3.474 49.4999,0.036 0,-3.474 2.88,0 0,-12.402 -2.844,0 -0.018,-17.728 2.862,0.02 0,-12.40195 -2.88,0 0,-3.474 -49.4999,-0.036 0,3.47402 -2.88,0 0,12.40193 2.844,0 0.018,17.728 z"
     id="path2985-9-2-1"
     inkscape:connector-curvature="0"
     sodipodi:nodetypes="ccccccccccccccccccccc" /><path
     style="fill:none;stroke:#ff0000;stroke-width:0.03543307;stroke-linecap:butt;stroke-linejoin:miter;stroke-miterlimit:4;stroke-opacity:1;stroke-dasharray:none"
     d="m 1078.5718,295.47607 0,12.402 2.88,0 0,3.474 49.4999,0.036 0,-3.474 2.88,0 0,-12.402 -2.844,0 -0.018,-17.728 2.862,0.02 0,-12.402 -2.88,0 0,-3.474 -49.4999,-0.036 0,3.474 -2.88,0 0,12.402 2.844,0 0.018,17.728 z"
     id="path2985-9-43-5-5"
     inkscape:connector-curvature="0"
     sodipodi:nodetypes="ccccccccccccccccccccc" /><path
     style="fill:none;stroke:#ff0000;stroke-width:0.03543307;stroke-linecap:butt;stroke-linejoin:miter;stroke-miterlimit:4;stroke-opacity:1;stroke-dasharray:none"
     d="m 1078.5718,231.69652 0,12.40195 2.88,0 0,3.474 49.4999,0.036 0,-3.474 2.88,0 0,-12.40195 -2.844,0 -0.018,-17.728 2.862,0.02 0,-12.40195 -2.88,0 0,-3.474 -49.4999,-0.036 0,3.47402 -2.88,0 0,12.40193 2.844,0 0.018,17.728 z"
     id="path2985-9-595-5-3"
     inkscape:connector-curvature="0"
     sodipodi:nodetypes="ccccccccccccccccccccc" /><path
     style="fill:none;stroke:#ff0000;stroke-width:0.03543307;stroke-linecap:butt;stroke-linejoin:miter;stroke-miterlimit:4;stroke-opacity:1;stroke-dasharray:none"
     d="m 1078.5718,167.91697 0,12.402 2.88,0 0,3.474 49.4999,0.036 0,-3.474 2.88,0 0,-12.402 -2.844,0 -0.018,-17.728 2.862,0.02 0,-12.40195 -2.88,0 0,-3.474 -49.4999,-0.036 0,3.47402 -2.8801,0 0,12.40193 2.8441,0 0.018,17.728 z"
     id="path2985-9-8-4-9"
     inkscape:connector-curvature="0"
     sodipodi:nodetypes="ccccccccccccccccccccc" /><path
     style="fill:none;stroke:#ff0000;stroke-width:0.03543307;stroke-linecap:butt;stroke-linejoin:miter;stroke-miterlimit:4;stroke-opacity:1;stroke-dasharray:none"
     d="m 1078.5718,104.13744 0,12.402 2.88,0 0,3.474 49.4999,0.036 0,-3.474 2.88,0 0,-12.402 -2.844,0 -0.018,-17.728002 2.862,0.02 0,-12.40195 -2.88,0 0,-3.474 -49.4999,-0.036 0,3.47402 -2.8801,0 0,12.40193 2.8441,0 0.018,17.728002 z"
     id="path2985-9-2-9-0"
     inkscape:connector-curvature="0"
     sodipodi:nodetypes="ccccccccccccccccccccc" /><path
     style="fill:none;stroke:#ff0000;stroke-width:0.03543307;stroke-linecap:butt;stroke-linejoin:miter;stroke-miterlimit:4;stroke-opacity:1;stroke-dasharray:none"
     d="m 1014.7921,279.53116 0,12.402 2.8801,0 0,3.474 49.5,0.036 0,-3.474 2.88,0 0,-12.402 -2.844,0 -0.018,-17.728 2.862,0.02 0,-12.40196 -2.88,0 0,-3.474 -49.5,-0.036 0,3.47402 -2.8801,0 0,12.40194 2.8441,0 0.018,17.728 z"
     id="path2985-9-43-4-4"
     inkscape:connector-curvature="0"
     sodipodi:nodetypes="ccccccccccccccccccccc" /><path
     style="fill:none;stroke:#ff0000;stroke-width:0.03543307;stroke-linecap:butt;stroke-linejoin:miter;stroke-miterlimit:4;stroke-opacity:1;stroke-dasharray:none"
     d="m 1014.7921,215.75165 0,12.40196 2.8801,0 0,3.474 49.5,0.036 0,-3.474 2.88,0 0,-12.40196 -2.844,0 -0.018,-17.728 2.862,0.02 0,-12.40195 -2.88,0 0,-3.474 -49.5,-0.036 0,3.47402 -2.8801,0 0,12.40193 2.8441,0 0.018,17.728 z"
     id="path2985-9-595-2-3"
     inkscape:connector-curvature="0"
     sodipodi:nodetypes="ccccccccccccccccccccc" /><path
     style="fill:none;stroke:#ff0000;stroke-width:0.03543307;stroke-linecap:butt;stroke-linejoin:miter;stroke-miterlimit:4;stroke-opacity:1;stroke-dasharray:none"
     d="m 1014.7921,151.9721 0,12.402 2.8801,0 0,3.474 49.5,0.036 0,-3.474 2.88,0 0,-12.402 -2.844,0 -0.018,-17.728 2.862,0.02 0,-12.40195 -2.88,0 0,-3.474 -49.5,-0.036 0,3.47402 -2.8801,0 0,12.40193 2.8441,0 0.018,17.728 z"
     id="path2985-9-8-3-1"
     inkscape:connector-curvature="0"
     sodipodi:nodetypes="ccccccccccccccccccccc" /><path
     style="fill:none;stroke:#ff0000;stroke-width:0.03543307;stroke-linecap:butt;stroke-linejoin:miter;stroke-miterlimit:4;stroke-opacity:1;stroke-dasharray:none"
     d="m 1014.7921,88.192568 0,12.402002 2.8801,0 0,3.474 49.5,0.036 0,-3.474 2.88,0 0,-12.402002 -2.844,0 -0.018,-17.728 2.862,0.02 0,-12.40195 -2.88,0 0,-3.474 -49.5,-0.036 0,3.47402 -2.8801,0 0,12.40193 2.8441,0 0.018,17.728 z"
     id="path2985-9-2-8-3"
     inkscape:connector-curvature="0"
     sodipodi:nodetypes="ccccccccccccccccccccc" /><path
     style="fill:none;stroke:#ff0000;stroke-width:0.03543307;stroke-linecap:butt;stroke-linejoin:miter;stroke-miterlimit:4;stroke-opacity:1;stroke-dasharray:none"
     d="m 951.01265,295.47604 0,12.402 2.88,0 0,3.474 49.50005,0.036 0,-3.474 2.88,0 0,-12.402 -2.844,0 -0.018,-17.728 2.862,0.02 0,-12.40196 -2.88,0 0,-3.474 -49.50005,-0.036 0,3.47402 -2.88,0 0,12.40194 2.844,0 0.018,17.728 z"
     id="path2985-9-43-2-9"
     inkscape:connector-curvature="0"
     sodipodi:nodetypes="ccccccccccccccccccccc" /><path
     style="fill:none;stroke:#ff0000;stroke-width:0.03543307;stroke-linecap:butt;stroke-linejoin:miter;stroke-miterlimit:4;stroke-opacity:1;stroke-dasharray:none"
     d="m 951.01265,231.69653 0,12.40196 2.88,0 0,3.474 49.50005,0.036 0,-3.474 2.88,0 0,-12.40196 -2.844,0 -0.018,-17.728 2.862,0.02 0,-12.40195 -2.88,0 0,-3.474 -49.50005,-0.036 0,3.47402 -2.88,0 0,12.40193 2.844,0 0.018,17.728 z"
     id="path2985-9-595-6-3"
     inkscape:connector-curvature="0"
     sodipodi:nodetypes="ccccccccccccccccccccc" /><path
     style="fill:none;stroke:#ff0000;stroke-width:0.03543307;stroke-linecap:butt;stroke-linejoin:miter;stroke-miterlimit:4;stroke-opacity:1;stroke-dasharray:none"
     d="m 951.01265,167.91698 0,12.402 2.88,0 0,3.474 49.50005,0.036 0,-3.474 2.88,0 0,-12.402 -2.844,0 -0.018,-17.728 2.862,0.02 0,-12.40195 -2.88,0 0,-3.474 -49.50005,-0.036 0,3.47402 -2.88,0 0,12.40193 2.844,0 0.018,17.728 z"
     id="path2985-9-8-8-1"
     inkscape:connector-curvature="0"
     sodipodi:nodetypes="ccccccccccccccccccccc" /><path
     style="fill:none;stroke:#ff0000;stroke-width:0.03543307;stroke-linecap:butt;stroke-linejoin:miter;stroke-miterlimit:4;stroke-opacity:1;stroke-dasharray:none"
     d="m 951.01265,104.13745 0,12.402 2.88,0 0,3.474 49.50005,0.036 0,-3.474 2.88,0 0,-12.402 -2.844,0 -0.018,-17.728002 2.862,0.02 0,-12.40195 -2.88,0 0,-3.474 -49.50005,-0.036 0,3.47402 -2.88,0 0,12.40193 2.844,0 0.018,17.728002 z"
     id="path2985-9-2-7-8"
     inkscape:connector-curvature="0"
     sodipodi:nodetypes="ccccccccccccccccccccc" /><path
     style="fill:none;stroke:#ff0000;stroke-width:0.03543307;stroke-linecap:butt;stroke-linejoin:miter;stroke-miterlimit:4;stroke-opacity:1;stroke-dasharray:none"
     d="m 951.01265,359.25556 0,12.40199 2.88,0 0,3.474 49.50005,0.036 0,-3.474 2.88,0 0,-12.40199 -2.844,0 -0.018,-17.72799 2.862,0.02 0,-12.40196 -2.88,0 0,-3.474 -49.50005,-0.036 0,3.47402 -2.88,0 0,12.40194 2.844,0 0.018,17.72799 z"
     id="path2985-9-43-2-6-8"
     inkscape:connector-curvature="0"
     sodipodi:nodetypes="ccccccccccccccccccccc" /><path
     style="fill:none;stroke:#ff0000;stroke-width:0.03543307;stroke-linecap:butt;stroke-linejoin:miter;stroke-miterlimit:4;stroke-opacity:1;stroke-dasharray:none"
     d="m 887.23315,311.42092 0,12.402 2.88,0 0,3.474 49.4999,0.036 0,-3.474 2.8801,0 0,-12.402 -2.8441,0 -0.018,-17.728 2.8621,0.02 0,-12.40196 -2.88,0 0,-3.474 -49.5,-0.036 0,3.47402 -2.88,0 0,12.40194 2.844,0 0.018,17.728 z"
     id="path2985-9-43-2-5-7"
     inkscape:connector-curvature="0"
     sodipodi:nodetypes="ccccccccccccccccccccc" /><path
     style="fill:none;stroke:#ff0000;stroke-width:0.03543307;stroke-linecap:butt;stroke-linejoin:miter;stroke-miterlimit:4;stroke-opacity:1;stroke-dasharray:none"
     d="m 887.23315,247.64141 0,12.40196 2.88,0 0,3.474 49.4999,0.036 0,-3.474 2.8801,0 0,-12.40196 -2.8441,0 -0.018,-17.728 2.8621,0.02 0,-12.40195 -2.88,0 0,-3.474 -49.5,-0.036 0,3.47402 -2.88,0 0,12.40193 2.844,0 0.018,17.728 z"
     id="path2985-9-595-6-8-3"
     inkscape:connector-curvature="0"
     sodipodi:nodetypes="ccccccccccccccccccccc" /><path
     style="fill:none;stroke:#ff0000;stroke-width:0.03543307;stroke-linecap:butt;stroke-linejoin:miter;stroke-miterlimit:4;stroke-opacity:1;stroke-dasharray:none"
     d="m 887.23315,183.86186 0,12.402 2.88,0 0,3.474 49.4999,0.036 0,-3.474 2.8801,0 0,-12.402 -2.8441,0 -0.018,-17.728 2.8621,0.02 0,-12.40195 -2.88,0 0,-3.474 -49.5,-0.036 0,3.47402 -2.88,0 0,12.40193 2.844,0 0.018,17.728 z"
     id="path2985-9-8-8-7-6"
     inkscape:connector-curvature="0"
     sodipodi:nodetypes="ccccccccccccccccccccc" /><path
     style="fill:none;stroke:#ff0000;stroke-width:0.03543307;stroke-linecap:butt;stroke-linejoin:miter;stroke-miterlimit:4;stroke-opacity:1;stroke-dasharray:none"
     d="m 887.23315,120.08233 0,12.402 2.88,0 0,3.474 49.4999,0.036 0,-3.474 2.8801,0 0,-12.402 -2.8441,0 -0.018,-17.728 2.8621,0.02 0,-12.401952 -2.88,0 0,-3.474 -49.5,-0.036 0,3.47402 -2.88,0 0,12.401932 2.844,0 0.018,17.728 z"
     id="path2985-9-2-7-1-7"
     inkscape:connector-curvature="0"
     sodipodi:nodetypes="ccccccccccccccccccccc" /><path
     style="fill:none;stroke:#ff0000;stroke-width:0.03543307;stroke-linecap:butt;stroke-linejoin:miter;stroke-miterlimit:4;stroke-opacity:1;stroke-dasharray:none"
     d="m 887.23315,375.20043 0,12.40197 2.88,0 0,3.474 49.4999,0.036 0,-3.474 2.8801,0 0,-12.40197 -2.8441,0 -0.018,-17.72799 2.8621,0.02 0,-12.40195 -2.88,0 0,-3.474 -49.5,-0.036 0,3.47402 -2.88,0 0,12.40193 2.844,0 0.018,17.72799 z"
     id="path2985-9-43-2-6-3-4"
     inkscape:connector-curvature="0"
     sodipodi:nodetypes="ccccccccccccccccccccc" /><path
     style="fill:none;stroke:#ff0000;stroke-width:0.03543307;stroke-linecap:butt;stroke-linejoin:miter;stroke-miterlimit:4;stroke-opacity:1;stroke-dasharray:none"
     d="m 823.45365,391.1453 0,12.402 2.88,0 0,3.474 49.4999,0.036 0,-3.474 2.88,0 0,-12.402 -2.844,0 -0.018,-17.72798 2.862,0.02 0,-12.40195 -2.88,0 0,-3.474 -49.4999,-0.036 0,3.47402 -2.8801,0 0,12.40193 2.8441,0 0.018,17.72798 z"
     id="path2985-9-43-2-6-3-6-9"
     inkscape:connector-curvature="0"
     sodipodi:nodetypes="ccccccccccccccccccccc" /><path
     style="fill:none;stroke:#ff0000;stroke-width:0.03543307;stroke-linecap:butt;stroke-linejoin:miter;stroke-miterlimit:4;stroke-opacity:1;stroke-dasharray:none"
     d="m 1200.0288,98.338348 0,-59.22641 -393.08175,0 0,532.901952 538.42785,0 0,-473.675542 z"
     id="path4217-1"
     inkscape:connector-curvature="0"
     sodipodi:nodetypes="ccccccc" /></svg>