G75*
%MOIN*%
%OFA0B0*%
%FSLAX25Y25*%
%IPPOS*%
%LPD*%
%AMOC8*
5,1,8,0,0,1.08239X$1,22.5*
%
%ADD10C,0.05200*%
%ADD11OC8,0.06300*%
%ADD12C,0.10000*%
%ADD13C,0.10124*%
%ADD14C,0.01600*%
D10*
X0011940Y0029879D02*
X0011940Y0035079D01*
X0082806Y0035079D02*
X0082806Y0029879D01*
X0153672Y0029879D02*
X0153672Y0035079D01*
X0226507Y0035079D02*
X0226507Y0029879D01*
X0299341Y0029879D02*
X0299341Y0035079D01*
X0299341Y0059879D02*
X0299341Y0065079D01*
X0226507Y0065079D02*
X0226507Y0059879D01*
X0153672Y0059879D02*
X0153672Y0065079D01*
X0082806Y0065079D02*
X0082806Y0059879D01*
X0011940Y0059879D02*
X0011940Y0065079D01*
D11*
X0011940Y0022873D03*
X0082806Y0022873D03*
X0153672Y0022873D03*
X0226507Y0022873D03*
X0299341Y0022873D03*
X0371192Y0047479D03*
X0371192Y0072085D03*
X0299341Y0072085D03*
X0226507Y0072085D03*
X0153672Y0072085D03*
X0082806Y0072085D03*
X0011940Y0072085D03*
X0005050Y0047479D03*
D12*
X0027373Y0057479D03*
X0098239Y0057479D03*
X0170089Y0057479D03*
X0242924Y0057479D03*
X0316743Y0057479D03*
X0326743Y0032479D03*
X0252924Y0032479D03*
X0180089Y0032479D03*
X0108239Y0032479D03*
X0037373Y0032479D03*
D13*
X0047373Y0027479D03*
X0118239Y0027479D03*
X0190089Y0027479D03*
X0262924Y0027479D03*
X0336743Y0027479D03*
X0336743Y0067479D03*
X0262924Y0067479D03*
X0190089Y0067479D03*
X0118239Y0067479D03*
X0047373Y0067479D03*
D14*
X0027373Y0057479D02*
X0022373Y0062479D01*
X0011940Y0062479D01*
X0005050Y0047479D02*
X0022373Y0047479D01*
X0037373Y0032479D01*
X0039578Y0034684D01*
X0076900Y0034684D01*
X0076900Y0047479D01*
X0093239Y0047479D01*
X0108239Y0032479D01*
X0110444Y0034684D01*
X0147767Y0034684D01*
X0147767Y0047479D01*
X0165089Y0047479D01*
X0180089Y0032479D01*
X0182294Y0034684D01*
X0219617Y0034684D01*
X0219617Y0047479D01*
X0237924Y0047479D01*
X0252924Y0032479D01*
X0255129Y0034684D01*
X0292452Y0034684D01*
X0292452Y0047479D01*
X0311743Y0047479D01*
X0326743Y0032479D01*
X0328948Y0034684D01*
X0366270Y0034684D01*
X0371192Y0039605D01*
X0371192Y0047479D01*
X0319538Y0060274D02*
X0316743Y0057479D01*
X0311743Y0062479D01*
X0299341Y0062479D01*
X0319538Y0060274D02*
X0366270Y0060274D01*
X0371192Y0065196D01*
X0371192Y0072085D01*
X0242924Y0057479D02*
X0237924Y0062479D01*
X0226507Y0062479D01*
X0170089Y0057479D02*
X0165089Y0062479D01*
X0153672Y0062479D01*
X0098239Y0057479D02*
X0093239Y0062479D01*
X0082806Y0062479D01*
M02*
