G75*
%MOIN*%
%OFA0B0*%
%FSLAX25Y25*%
%IPPOS*%
%LPD*%
%AMOC8*
5,1,8,0,0,1.08239X$1,22.5*
%
%ADD10C,0.06000*%
%ADD11OC8,0.07100*%
%ADD12C,0.10800*%
%ADD13C,0.10924*%
%ADD14C,0.16550*%
D10*
X0011940Y0029879D02*
X0011940Y0035079D01*
X0082806Y0035079D02*
X0082806Y0029879D01*
X0153672Y0029879D02*
X0153672Y0035079D01*
X0226507Y0035079D02*
X0226507Y0029879D01*
X0299341Y0029879D02*
X0299341Y0035079D01*
X0299341Y0059879D02*
X0299341Y0065079D01*
X0226507Y0065079D02*
X0226507Y0059879D01*
X0153672Y0059879D02*
X0153672Y0065079D01*
X0082806Y0065079D02*
X0082806Y0059879D01*
X0011940Y0059879D02*
X0011940Y0065079D01*
D11*
X0011940Y0022873D03*
X0082806Y0022873D03*
X0153672Y0022873D03*
X0226507Y0022873D03*
X0299341Y0022873D03*
X0371192Y0047479D03*
X0371192Y0072085D03*
X0299341Y0072085D03*
X0226507Y0072085D03*
X0153672Y0072085D03*
X0082806Y0072085D03*
X0011940Y0072085D03*
X0005050Y0047479D03*
D12*
X0027373Y0057479D03*
X0098239Y0057479D03*
X0170089Y0057479D03*
X0242924Y0057479D03*
X0316743Y0057479D03*
X0326743Y0032479D03*
X0252924Y0032479D03*
X0180089Y0032479D03*
X0108239Y0032479D03*
X0037373Y0032479D03*
D13*
X0047373Y0027479D03*
X0118239Y0027479D03*
X0190089Y0027479D03*
X0262924Y0027479D03*
X0336743Y0027479D03*
X0336743Y0067479D03*
X0262924Y0067479D03*
X0190089Y0067479D03*
X0118239Y0067479D03*
X0047373Y0067479D03*
D14*
X0047373Y0047479D03*
X0118239Y0047479D03*
X0190089Y0047479D03*
X0262924Y0047479D03*
X0336743Y0047479D03*
M02*
