G75*
%MOIN*%
%OFA0B0*%
%FSLAX25Y25*%
%IPPOS*%
%LPD*%
%AMOC8*
5,1,8,0,0,1.08239X$1,22.5*
%
%ADD10C,0.00600*%
%ADD11R,0.08000X0.02000*%
%ADD12R,0.02000X0.02500*%
%ADD13C,0.00500*%
D10*
X0008940Y0019873D02*
X0008940Y0020873D01*
X0008940Y0019873D02*
X0009940Y0019873D01*
X0013940Y0019873D02*
X0014940Y0019873D01*
X0014940Y0020873D01*
X0014940Y0024873D02*
X0014940Y0025873D01*
X0013940Y0025873D01*
X0009940Y0025873D02*
X0008940Y0025873D01*
X0008940Y0024873D01*
X0008940Y0038479D02*
X0014940Y0038479D01*
X0015000Y0038481D01*
X0015061Y0038486D01*
X0015120Y0038495D01*
X0015179Y0038508D01*
X0015238Y0038524D01*
X0015295Y0038544D01*
X0015350Y0038567D01*
X0015405Y0038594D01*
X0015457Y0038623D01*
X0015508Y0038656D01*
X0015557Y0038692D01*
X0015603Y0038730D01*
X0015647Y0038772D01*
X0015689Y0038816D01*
X0015727Y0038862D01*
X0015763Y0038911D01*
X0015796Y0038962D01*
X0015825Y0039014D01*
X0015852Y0039069D01*
X0015875Y0039124D01*
X0015895Y0039181D01*
X0015911Y0039240D01*
X0015924Y0039299D01*
X0015933Y0039358D01*
X0015938Y0039419D01*
X0015940Y0039479D01*
X0015940Y0055479D01*
X0015938Y0055539D01*
X0015933Y0055600D01*
X0015924Y0055659D01*
X0015911Y0055718D01*
X0015895Y0055777D01*
X0015875Y0055834D01*
X0015852Y0055889D01*
X0015825Y0055944D01*
X0015796Y0055996D01*
X0015763Y0056047D01*
X0015727Y0056096D01*
X0015689Y0056142D01*
X0015647Y0056186D01*
X0015603Y0056228D01*
X0015557Y0056266D01*
X0015508Y0056302D01*
X0015457Y0056335D01*
X0015405Y0056364D01*
X0015350Y0056391D01*
X0015295Y0056414D01*
X0015238Y0056434D01*
X0015179Y0056450D01*
X0015120Y0056463D01*
X0015061Y0056472D01*
X0015000Y0056477D01*
X0014940Y0056479D01*
X0008940Y0056479D01*
X0008880Y0056477D01*
X0008819Y0056472D01*
X0008760Y0056463D01*
X0008701Y0056450D01*
X0008642Y0056434D01*
X0008585Y0056414D01*
X0008530Y0056391D01*
X0008475Y0056364D01*
X0008423Y0056335D01*
X0008372Y0056302D01*
X0008323Y0056266D01*
X0008277Y0056228D01*
X0008233Y0056186D01*
X0008191Y0056142D01*
X0008153Y0056096D01*
X0008117Y0056047D01*
X0008084Y0055996D01*
X0008055Y0055944D01*
X0008028Y0055889D01*
X0008005Y0055834D01*
X0007985Y0055777D01*
X0007969Y0055718D01*
X0007956Y0055659D01*
X0007947Y0055600D01*
X0007942Y0055539D01*
X0007940Y0055479D01*
X0007940Y0039479D01*
X0007942Y0039419D01*
X0007947Y0039358D01*
X0007956Y0039299D01*
X0007969Y0039240D01*
X0007985Y0039181D01*
X0008005Y0039124D01*
X0008028Y0039069D01*
X0008055Y0039014D01*
X0008084Y0038962D01*
X0008117Y0038911D01*
X0008153Y0038862D01*
X0008191Y0038816D01*
X0008233Y0038772D01*
X0008277Y0038730D01*
X0008323Y0038692D01*
X0008372Y0038656D01*
X0008423Y0038623D01*
X0008475Y0038594D01*
X0008530Y0038567D01*
X0008585Y0038544D01*
X0008642Y0038524D01*
X0008701Y0038508D01*
X0008760Y0038495D01*
X0008819Y0038486D01*
X0008880Y0038481D01*
X0008940Y0038479D01*
X0011940Y0041479D02*
X0011940Y0047479D01*
X0009440Y0047479D01*
X0011940Y0047479D02*
X0014440Y0047479D01*
X0011940Y0047479D02*
X0014440Y0043479D01*
X0009440Y0043479D01*
X0011940Y0047479D01*
X0011940Y0049979D01*
X0008050Y0050479D02*
X0008050Y0049479D01*
X0008050Y0050479D02*
X0007050Y0050479D01*
X0003050Y0050479D02*
X0002050Y0050479D01*
X0002050Y0049479D01*
X0002050Y0045479D02*
X0002050Y0044479D01*
X0003050Y0044479D01*
X0007050Y0044479D02*
X0008050Y0044479D01*
X0008050Y0045479D01*
X0078806Y0039479D02*
X0078806Y0055479D01*
X0078808Y0055539D01*
X0078813Y0055600D01*
X0078822Y0055659D01*
X0078835Y0055718D01*
X0078851Y0055777D01*
X0078871Y0055834D01*
X0078894Y0055889D01*
X0078921Y0055944D01*
X0078950Y0055996D01*
X0078983Y0056047D01*
X0079019Y0056096D01*
X0079057Y0056142D01*
X0079099Y0056186D01*
X0079143Y0056228D01*
X0079189Y0056266D01*
X0079238Y0056302D01*
X0079289Y0056335D01*
X0079341Y0056364D01*
X0079396Y0056391D01*
X0079451Y0056414D01*
X0079508Y0056434D01*
X0079567Y0056450D01*
X0079626Y0056463D01*
X0079685Y0056472D01*
X0079746Y0056477D01*
X0079806Y0056479D01*
X0085806Y0056479D01*
X0085866Y0056477D01*
X0085927Y0056472D01*
X0085986Y0056463D01*
X0086045Y0056450D01*
X0086104Y0056434D01*
X0086161Y0056414D01*
X0086216Y0056391D01*
X0086271Y0056364D01*
X0086323Y0056335D01*
X0086374Y0056302D01*
X0086423Y0056266D01*
X0086469Y0056228D01*
X0086513Y0056186D01*
X0086555Y0056142D01*
X0086593Y0056096D01*
X0086629Y0056047D01*
X0086662Y0055996D01*
X0086691Y0055944D01*
X0086718Y0055889D01*
X0086741Y0055834D01*
X0086761Y0055777D01*
X0086777Y0055718D01*
X0086790Y0055659D01*
X0086799Y0055600D01*
X0086804Y0055539D01*
X0086806Y0055479D01*
X0086806Y0039479D01*
X0086804Y0039419D01*
X0086799Y0039358D01*
X0086790Y0039299D01*
X0086777Y0039240D01*
X0086761Y0039181D01*
X0086741Y0039124D01*
X0086718Y0039069D01*
X0086691Y0039014D01*
X0086662Y0038962D01*
X0086629Y0038911D01*
X0086593Y0038862D01*
X0086555Y0038816D01*
X0086513Y0038772D01*
X0086469Y0038730D01*
X0086423Y0038692D01*
X0086374Y0038656D01*
X0086323Y0038623D01*
X0086271Y0038594D01*
X0086216Y0038567D01*
X0086161Y0038544D01*
X0086104Y0038524D01*
X0086045Y0038508D01*
X0085986Y0038495D01*
X0085927Y0038486D01*
X0085866Y0038481D01*
X0085806Y0038479D01*
X0079806Y0038479D01*
X0079746Y0038481D01*
X0079685Y0038486D01*
X0079626Y0038495D01*
X0079567Y0038508D01*
X0079508Y0038524D01*
X0079451Y0038544D01*
X0079396Y0038567D01*
X0079341Y0038594D01*
X0079289Y0038623D01*
X0079238Y0038656D01*
X0079189Y0038692D01*
X0079143Y0038730D01*
X0079099Y0038772D01*
X0079057Y0038816D01*
X0079019Y0038862D01*
X0078983Y0038911D01*
X0078950Y0038962D01*
X0078921Y0039014D01*
X0078894Y0039069D01*
X0078871Y0039124D01*
X0078851Y0039181D01*
X0078835Y0039240D01*
X0078822Y0039299D01*
X0078813Y0039358D01*
X0078808Y0039419D01*
X0078806Y0039479D01*
X0082806Y0041479D02*
X0082806Y0047479D01*
X0080306Y0047479D01*
X0082806Y0047479D02*
X0085306Y0047479D01*
X0082806Y0047479D02*
X0085306Y0043479D01*
X0080306Y0043479D01*
X0082806Y0047479D01*
X0082806Y0049979D01*
X0149672Y0055479D02*
X0149672Y0039479D01*
X0149674Y0039419D01*
X0149679Y0039358D01*
X0149688Y0039299D01*
X0149701Y0039240D01*
X0149717Y0039181D01*
X0149737Y0039124D01*
X0149760Y0039069D01*
X0149787Y0039014D01*
X0149816Y0038962D01*
X0149849Y0038911D01*
X0149885Y0038862D01*
X0149923Y0038816D01*
X0149965Y0038772D01*
X0150009Y0038730D01*
X0150055Y0038692D01*
X0150104Y0038656D01*
X0150155Y0038623D01*
X0150207Y0038594D01*
X0150262Y0038567D01*
X0150317Y0038544D01*
X0150374Y0038524D01*
X0150433Y0038508D01*
X0150492Y0038495D01*
X0150551Y0038486D01*
X0150612Y0038481D01*
X0150672Y0038479D01*
X0156672Y0038479D01*
X0156732Y0038481D01*
X0156793Y0038486D01*
X0156852Y0038495D01*
X0156911Y0038508D01*
X0156970Y0038524D01*
X0157027Y0038544D01*
X0157082Y0038567D01*
X0157137Y0038594D01*
X0157189Y0038623D01*
X0157240Y0038656D01*
X0157289Y0038692D01*
X0157335Y0038730D01*
X0157379Y0038772D01*
X0157421Y0038816D01*
X0157459Y0038862D01*
X0157495Y0038911D01*
X0157528Y0038962D01*
X0157557Y0039014D01*
X0157584Y0039069D01*
X0157607Y0039124D01*
X0157627Y0039181D01*
X0157643Y0039240D01*
X0157656Y0039299D01*
X0157665Y0039358D01*
X0157670Y0039419D01*
X0157672Y0039479D01*
X0157672Y0055479D01*
X0157670Y0055539D01*
X0157665Y0055600D01*
X0157656Y0055659D01*
X0157643Y0055718D01*
X0157627Y0055777D01*
X0157607Y0055834D01*
X0157584Y0055889D01*
X0157557Y0055944D01*
X0157528Y0055996D01*
X0157495Y0056047D01*
X0157459Y0056096D01*
X0157421Y0056142D01*
X0157379Y0056186D01*
X0157335Y0056228D01*
X0157289Y0056266D01*
X0157240Y0056302D01*
X0157189Y0056335D01*
X0157137Y0056364D01*
X0157082Y0056391D01*
X0157027Y0056414D01*
X0156970Y0056434D01*
X0156911Y0056450D01*
X0156852Y0056463D01*
X0156793Y0056472D01*
X0156732Y0056477D01*
X0156672Y0056479D01*
X0150672Y0056479D01*
X0150612Y0056477D01*
X0150551Y0056472D01*
X0150492Y0056463D01*
X0150433Y0056450D01*
X0150374Y0056434D01*
X0150317Y0056414D01*
X0150262Y0056391D01*
X0150207Y0056364D01*
X0150155Y0056335D01*
X0150104Y0056302D01*
X0150055Y0056266D01*
X0150009Y0056228D01*
X0149965Y0056186D01*
X0149923Y0056142D01*
X0149885Y0056096D01*
X0149849Y0056047D01*
X0149816Y0055996D01*
X0149787Y0055944D01*
X0149760Y0055889D01*
X0149737Y0055834D01*
X0149717Y0055777D01*
X0149701Y0055718D01*
X0149688Y0055659D01*
X0149679Y0055600D01*
X0149674Y0055539D01*
X0149672Y0055479D01*
X0153672Y0049979D02*
X0153672Y0047479D01*
X0151172Y0047479D01*
X0153672Y0047479D02*
X0156172Y0047479D01*
X0153672Y0047479D02*
X0156172Y0043479D01*
X0151172Y0043479D01*
X0153672Y0047479D01*
X0153672Y0041479D01*
X0222507Y0039479D02*
X0222507Y0055479D01*
X0222509Y0055539D01*
X0222514Y0055600D01*
X0222523Y0055659D01*
X0222536Y0055718D01*
X0222552Y0055777D01*
X0222572Y0055834D01*
X0222595Y0055889D01*
X0222622Y0055944D01*
X0222651Y0055996D01*
X0222684Y0056047D01*
X0222720Y0056096D01*
X0222758Y0056142D01*
X0222800Y0056186D01*
X0222844Y0056228D01*
X0222890Y0056266D01*
X0222939Y0056302D01*
X0222990Y0056335D01*
X0223042Y0056364D01*
X0223097Y0056391D01*
X0223152Y0056414D01*
X0223209Y0056434D01*
X0223268Y0056450D01*
X0223327Y0056463D01*
X0223386Y0056472D01*
X0223447Y0056477D01*
X0223507Y0056479D01*
X0229507Y0056479D01*
X0229567Y0056477D01*
X0229628Y0056472D01*
X0229687Y0056463D01*
X0229746Y0056450D01*
X0229805Y0056434D01*
X0229862Y0056414D01*
X0229917Y0056391D01*
X0229972Y0056364D01*
X0230024Y0056335D01*
X0230075Y0056302D01*
X0230124Y0056266D01*
X0230170Y0056228D01*
X0230214Y0056186D01*
X0230256Y0056142D01*
X0230294Y0056096D01*
X0230330Y0056047D01*
X0230363Y0055996D01*
X0230392Y0055944D01*
X0230419Y0055889D01*
X0230442Y0055834D01*
X0230462Y0055777D01*
X0230478Y0055718D01*
X0230491Y0055659D01*
X0230500Y0055600D01*
X0230505Y0055539D01*
X0230507Y0055479D01*
X0230507Y0039479D01*
X0230505Y0039419D01*
X0230500Y0039358D01*
X0230491Y0039299D01*
X0230478Y0039240D01*
X0230462Y0039181D01*
X0230442Y0039124D01*
X0230419Y0039069D01*
X0230392Y0039014D01*
X0230363Y0038962D01*
X0230330Y0038911D01*
X0230294Y0038862D01*
X0230256Y0038816D01*
X0230214Y0038772D01*
X0230170Y0038730D01*
X0230124Y0038692D01*
X0230075Y0038656D01*
X0230024Y0038623D01*
X0229972Y0038594D01*
X0229917Y0038567D01*
X0229862Y0038544D01*
X0229805Y0038524D01*
X0229746Y0038508D01*
X0229687Y0038495D01*
X0229628Y0038486D01*
X0229567Y0038481D01*
X0229507Y0038479D01*
X0223507Y0038479D01*
X0223447Y0038481D01*
X0223386Y0038486D01*
X0223327Y0038495D01*
X0223268Y0038508D01*
X0223209Y0038524D01*
X0223152Y0038544D01*
X0223097Y0038567D01*
X0223042Y0038594D01*
X0222990Y0038623D01*
X0222939Y0038656D01*
X0222890Y0038692D01*
X0222844Y0038730D01*
X0222800Y0038772D01*
X0222758Y0038816D01*
X0222720Y0038862D01*
X0222684Y0038911D01*
X0222651Y0038962D01*
X0222622Y0039014D01*
X0222595Y0039069D01*
X0222572Y0039124D01*
X0222552Y0039181D01*
X0222536Y0039240D01*
X0222523Y0039299D01*
X0222514Y0039358D01*
X0222509Y0039419D01*
X0222507Y0039479D01*
X0226507Y0041479D02*
X0226507Y0047479D01*
X0224007Y0047479D01*
X0226507Y0047479D02*
X0229007Y0047479D01*
X0226507Y0047479D02*
X0229007Y0043479D01*
X0224007Y0043479D01*
X0226507Y0047479D01*
X0226507Y0049979D01*
X0295341Y0055479D02*
X0295341Y0039479D01*
X0295343Y0039419D01*
X0295348Y0039358D01*
X0295357Y0039299D01*
X0295370Y0039240D01*
X0295386Y0039181D01*
X0295406Y0039124D01*
X0295429Y0039069D01*
X0295456Y0039014D01*
X0295485Y0038962D01*
X0295518Y0038911D01*
X0295554Y0038862D01*
X0295592Y0038816D01*
X0295634Y0038772D01*
X0295678Y0038730D01*
X0295724Y0038692D01*
X0295773Y0038656D01*
X0295824Y0038623D01*
X0295876Y0038594D01*
X0295931Y0038567D01*
X0295986Y0038544D01*
X0296043Y0038524D01*
X0296102Y0038508D01*
X0296161Y0038495D01*
X0296220Y0038486D01*
X0296281Y0038481D01*
X0296341Y0038479D01*
X0302341Y0038479D01*
X0302401Y0038481D01*
X0302462Y0038486D01*
X0302521Y0038495D01*
X0302580Y0038508D01*
X0302639Y0038524D01*
X0302696Y0038544D01*
X0302751Y0038567D01*
X0302806Y0038594D01*
X0302858Y0038623D01*
X0302909Y0038656D01*
X0302958Y0038692D01*
X0303004Y0038730D01*
X0303048Y0038772D01*
X0303090Y0038816D01*
X0303128Y0038862D01*
X0303164Y0038911D01*
X0303197Y0038962D01*
X0303226Y0039014D01*
X0303253Y0039069D01*
X0303276Y0039124D01*
X0303296Y0039181D01*
X0303312Y0039240D01*
X0303325Y0039299D01*
X0303334Y0039358D01*
X0303339Y0039419D01*
X0303341Y0039479D01*
X0303341Y0055479D01*
X0303339Y0055539D01*
X0303334Y0055600D01*
X0303325Y0055659D01*
X0303312Y0055718D01*
X0303296Y0055777D01*
X0303276Y0055834D01*
X0303253Y0055889D01*
X0303226Y0055944D01*
X0303197Y0055996D01*
X0303164Y0056047D01*
X0303128Y0056096D01*
X0303090Y0056142D01*
X0303048Y0056186D01*
X0303004Y0056228D01*
X0302958Y0056266D01*
X0302909Y0056302D01*
X0302858Y0056335D01*
X0302806Y0056364D01*
X0302751Y0056391D01*
X0302696Y0056414D01*
X0302639Y0056434D01*
X0302580Y0056450D01*
X0302521Y0056463D01*
X0302462Y0056472D01*
X0302401Y0056477D01*
X0302341Y0056479D01*
X0296341Y0056479D01*
X0296281Y0056477D01*
X0296220Y0056472D01*
X0296161Y0056463D01*
X0296102Y0056450D01*
X0296043Y0056434D01*
X0295986Y0056414D01*
X0295931Y0056391D01*
X0295876Y0056364D01*
X0295824Y0056335D01*
X0295773Y0056302D01*
X0295724Y0056266D01*
X0295678Y0056228D01*
X0295634Y0056186D01*
X0295592Y0056142D01*
X0295554Y0056096D01*
X0295518Y0056047D01*
X0295485Y0055996D01*
X0295456Y0055944D01*
X0295429Y0055889D01*
X0295406Y0055834D01*
X0295386Y0055777D01*
X0295370Y0055718D01*
X0295357Y0055659D01*
X0295348Y0055600D01*
X0295343Y0055539D01*
X0295341Y0055479D01*
X0299341Y0049979D02*
X0299341Y0047479D01*
X0296841Y0047479D01*
X0299341Y0047479D02*
X0301841Y0047479D01*
X0299341Y0047479D02*
X0301841Y0043479D01*
X0296841Y0043479D01*
X0299341Y0047479D01*
X0299341Y0041479D01*
X0348848Y0041232D02*
X0355254Y0041232D01*
X0355254Y0044435D01*
X0354186Y0045502D01*
X0352051Y0045502D01*
X0350984Y0044435D01*
X0350984Y0041232D01*
X0350712Y0041232D02*
X0350712Y0044435D01*
X0351780Y0045502D01*
X0353915Y0045502D01*
X0354983Y0044435D01*
X0354983Y0041232D01*
X0357118Y0041232D02*
X0350712Y0041232D01*
X0368192Y0044479D02*
X0368192Y0045479D01*
X0368192Y0044479D02*
X0369192Y0044479D01*
X0373192Y0044479D02*
X0374192Y0044479D01*
X0374192Y0045479D01*
X0374192Y0049479D02*
X0374192Y0050479D01*
X0373192Y0050479D01*
X0369192Y0050479D02*
X0368192Y0050479D01*
X0368192Y0049479D01*
X0355254Y0048745D02*
X0354186Y0047678D01*
X0352051Y0047678D01*
X0350984Y0048745D01*
X0350984Y0050880D01*
X0352051Y0051948D01*
X0354186Y0051948D01*
X0355254Y0050880D01*
X0355254Y0048745D01*
X0354983Y0048745D02*
X0353915Y0047678D01*
X0351780Y0047678D01*
X0350712Y0048745D01*
X0350712Y0050880D01*
X0351780Y0051948D01*
X0353915Y0051948D01*
X0354983Y0050880D01*
X0354983Y0048745D01*
X0354186Y0054123D02*
X0353119Y0055191D01*
X0353119Y0058393D01*
X0352847Y0058393D02*
X0352847Y0055191D01*
X0351780Y0054123D01*
X0350712Y0055191D01*
X0350712Y0058393D01*
X0353915Y0058393D01*
X0354983Y0057326D01*
X0354983Y0055191D01*
X0355254Y0055191D02*
X0354186Y0054123D01*
X0355254Y0055191D02*
X0355254Y0058393D01*
X0352051Y0058393D01*
X0350984Y0057326D01*
X0350984Y0055191D01*
X0350984Y0060569D02*
X0355254Y0060569D01*
X0354983Y0060569D02*
X0350712Y0060569D01*
X0352847Y0060569D02*
X0354983Y0062704D01*
X0354983Y0063771D01*
X0350984Y0063771D02*
X0350984Y0062704D01*
X0353119Y0060569D01*
X0353915Y0065940D02*
X0351780Y0065940D01*
X0350712Y0067007D01*
X0350712Y0070210D01*
X0357118Y0070210D01*
X0355254Y0070210D02*
X0355254Y0067007D01*
X0354186Y0065940D01*
X0352051Y0065940D01*
X0350984Y0067007D01*
X0350984Y0070210D01*
X0348848Y0070210D02*
X0355254Y0070210D01*
X0354983Y0070210D02*
X0354983Y0067007D01*
X0353915Y0065940D01*
X0368192Y0069085D02*
X0369192Y0069085D01*
X0368192Y0069085D02*
X0368192Y0070085D01*
X0373192Y0069085D02*
X0374192Y0069085D01*
X0374192Y0070085D01*
X0374192Y0074085D02*
X0374192Y0075085D01*
X0373192Y0075085D01*
X0369192Y0075085D02*
X0368192Y0075085D01*
X0368192Y0074085D01*
X0302341Y0074085D02*
X0302341Y0075085D01*
X0301341Y0075085D01*
X0297341Y0075085D02*
X0296341Y0075085D01*
X0296341Y0074085D01*
X0296341Y0070085D02*
X0296341Y0069085D01*
X0297341Y0069085D01*
X0301341Y0069085D02*
X0302341Y0069085D01*
X0302341Y0070085D01*
X0229507Y0070085D02*
X0229507Y0069085D01*
X0228507Y0069085D01*
X0224507Y0069085D02*
X0223507Y0069085D01*
X0223507Y0070085D01*
X0223507Y0074085D02*
X0223507Y0075085D01*
X0224507Y0075085D01*
X0228507Y0075085D02*
X0229507Y0075085D01*
X0229507Y0074085D01*
X0156672Y0074085D02*
X0156672Y0075085D01*
X0155672Y0075085D01*
X0151672Y0075085D02*
X0150672Y0075085D01*
X0150672Y0074085D01*
X0150672Y0070085D02*
X0150672Y0069085D01*
X0151672Y0069085D01*
X0155672Y0069085D02*
X0156672Y0069085D01*
X0156672Y0070085D01*
X0085806Y0070085D02*
X0085806Y0069085D01*
X0084806Y0069085D01*
X0080806Y0069085D02*
X0079806Y0069085D01*
X0079806Y0070085D01*
X0079806Y0074085D02*
X0079806Y0075085D01*
X0080806Y0075085D01*
X0084806Y0075085D02*
X0085806Y0075085D01*
X0085806Y0074085D01*
X0014940Y0074085D02*
X0014940Y0075085D01*
X0013940Y0075085D01*
X0009940Y0075085D02*
X0008940Y0075085D01*
X0008940Y0074085D01*
X0008940Y0070085D02*
X0008940Y0069085D01*
X0009940Y0069085D01*
X0013940Y0069085D02*
X0014940Y0069085D01*
X0014940Y0070085D01*
X0079806Y0025873D02*
X0079806Y0024873D01*
X0079806Y0025873D02*
X0080806Y0025873D01*
X0084806Y0025873D02*
X0085806Y0025873D01*
X0085806Y0024873D01*
X0085806Y0020873D02*
X0085806Y0019873D01*
X0084806Y0019873D01*
X0080806Y0019873D02*
X0079806Y0019873D01*
X0079806Y0020873D01*
X0150672Y0020873D02*
X0150672Y0019873D01*
X0151672Y0019873D01*
X0155672Y0019873D02*
X0156672Y0019873D01*
X0156672Y0020873D01*
X0156672Y0024873D02*
X0156672Y0025873D01*
X0155672Y0025873D01*
X0151672Y0025873D02*
X0150672Y0025873D01*
X0150672Y0024873D01*
X0223507Y0024873D02*
X0223507Y0025873D01*
X0224507Y0025873D01*
X0228507Y0025873D02*
X0229507Y0025873D01*
X0229507Y0024873D01*
X0229507Y0020873D02*
X0229507Y0019873D01*
X0228507Y0019873D01*
X0224507Y0019873D02*
X0223507Y0019873D01*
X0223507Y0020873D01*
X0296341Y0020873D02*
X0296341Y0019873D01*
X0297341Y0019873D01*
X0301341Y0019873D02*
X0302341Y0019873D01*
X0302341Y0020873D01*
X0302341Y0024873D02*
X0302341Y0025873D01*
X0301341Y0025873D01*
X0297341Y0025873D02*
X0296341Y0025873D01*
X0296341Y0024873D01*
X0348577Y0030476D02*
X0348577Y0031544D01*
X0349645Y0032611D01*
X0354983Y0032611D01*
X0355254Y0032611D02*
X0355254Y0029409D01*
X0354186Y0028341D01*
X0350984Y0028341D01*
X0351780Y0028341D02*
X0350712Y0029409D01*
X0350712Y0032611D01*
X0350984Y0032611D02*
X0356322Y0032611D01*
X0357389Y0031544D01*
X0357389Y0030476D01*
X0354983Y0028341D02*
X0351780Y0028341D01*
X0352051Y0026166D02*
X0353119Y0026166D01*
X0353119Y0021896D01*
X0352847Y0021896D02*
X0352847Y0026166D01*
X0353915Y0026166D01*
X0354983Y0025098D01*
X0354983Y0022963D01*
X0353915Y0021896D01*
X0351780Y0021896D01*
X0350712Y0022963D01*
X0350712Y0025098D01*
X0350984Y0025098D02*
X0352051Y0026166D01*
X0350984Y0025098D02*
X0350984Y0022963D01*
X0352051Y0021896D01*
X0354186Y0021896D01*
X0355254Y0022963D01*
X0355254Y0025098D01*
X0355254Y0019727D02*
X0353119Y0016524D01*
X0350984Y0019727D01*
X0350712Y0019727D02*
X0352847Y0016524D01*
X0354983Y0019727D01*
X0355254Y0016524D02*
X0348848Y0016524D01*
X0350712Y0016524D02*
X0357118Y0016524D01*
X0357118Y0007904D02*
X0357118Y0003633D01*
X0353915Y0003633D01*
X0354983Y0005768D01*
X0354983Y0006836D01*
X0353915Y0007904D01*
X0351780Y0007904D01*
X0350712Y0006836D01*
X0350712Y0004701D01*
X0351780Y0003633D01*
X0352051Y0003633D02*
X0350984Y0005768D01*
X0350984Y0006836D01*
X0352051Y0007904D01*
X0354186Y0007904D01*
X0355254Y0006836D01*
X0355254Y0004701D01*
X0354186Y0003633D01*
X0352051Y0003633D02*
X0348848Y0003633D01*
X0348848Y0007904D01*
D11*
X0299341Y0053979D03*
X0226507Y0053979D03*
X0153672Y0053979D03*
X0082806Y0053979D03*
X0011940Y0053979D03*
D12*
X0011940Y0057729D03*
X0082806Y0057729D03*
X0153672Y0057729D03*
X0226507Y0057729D03*
X0299341Y0057729D03*
X0299341Y0037229D03*
X0226507Y0037229D03*
X0153672Y0037229D03*
X0082806Y0037229D03*
X0011940Y0037229D03*
D13*
X0017373Y0017479D02*
X0077373Y0017479D01*
X0077373Y0077479D01*
X0017373Y0077479D01*
X0017373Y0017479D01*
X0088239Y0017479D02*
X0148239Y0017479D01*
X0148239Y0077479D01*
X0088239Y0077479D01*
X0088239Y0017479D01*
X0160089Y0017479D02*
X0220089Y0017479D01*
X0220089Y0077479D01*
X0160089Y0077479D01*
X0160089Y0017479D01*
X0232924Y0017479D02*
X0292924Y0017479D01*
X0292924Y0077479D01*
X0232924Y0077479D01*
X0232924Y0017479D01*
X0306743Y0017479D02*
X0366743Y0017479D01*
X0366743Y0077479D01*
X0306743Y0077479D01*
X0306743Y0017479D01*
M02*
