%
M48
M72
T01C0.03200
T02C0.05906
T03C0.06750
T04C0.15750
%
T01
X11940Y22873
X11940Y32479
X5050Y47479
X11940Y62479
X11940Y72085
X82806Y72085
X82806Y62479
X153672Y62479
X153672Y72085
X226507Y72085
X226507Y62479
X299341Y62479
X299341Y72085
X371192Y72085
X371192Y47479
X299341Y32479
X299341Y22873
X226507Y22873
X226507Y32479
X153672Y32479
X153672Y22873
X82806Y22873
X82806Y32479
T02
X108239Y32479
X37373Y32479
X27373Y57479
X98239Y57479
X170089Y57479
X242924Y57479
X316743Y57479
X326743Y32479
X252924Y32479
X180089Y32479
T03
X190089Y27479
X118239Y27479
X47373Y27479
X47373Y67479
X118239Y67479
X190089Y67479
X262924Y67479
X336743Y67479
X336743Y27479
X262924Y27479
T04
X262924Y47479
X190089Y47479
X118239Y47479
X47373Y47479
X336743Y47479
M30
