G75*
%MOIN*%
%OFA0B0*%
%FSLAX25Y25*%
%IPPOS*%
%LPD*%
%AMOC8*
5,1,8,0,0,1.08239X$1,22.5*
%
%ADD10C,0.00197*%
%ADD11C,0.00000*%
D10*
X0001113Y0018936D02*
X0375129Y0018936D01*
X0375129Y0076022D01*
X0001113Y0076022D01*
X0001113Y0018936D01*
D11*
X0039498Y0047479D02*
X0039500Y0047672D01*
X0039507Y0047865D01*
X0039519Y0048058D01*
X0039536Y0048251D01*
X0039557Y0048443D01*
X0039583Y0048635D01*
X0039614Y0048825D01*
X0039649Y0049015D01*
X0039689Y0049204D01*
X0039734Y0049392D01*
X0039783Y0049579D01*
X0039837Y0049765D01*
X0039895Y0049949D01*
X0039958Y0050132D01*
X0040026Y0050313D01*
X0040097Y0050493D01*
X0040174Y0050670D01*
X0040254Y0050846D01*
X0040339Y0051020D01*
X0040428Y0051191D01*
X0040521Y0051361D01*
X0040618Y0051528D01*
X0040720Y0051692D01*
X0040825Y0051854D01*
X0040935Y0052013D01*
X0041048Y0052170D01*
X0041165Y0052324D01*
X0041286Y0052475D01*
X0041410Y0052623D01*
X0041538Y0052768D01*
X0041670Y0052909D01*
X0041805Y0053047D01*
X0041943Y0053182D01*
X0042084Y0053314D01*
X0042229Y0053442D01*
X0042377Y0053566D01*
X0042528Y0053687D01*
X0042682Y0053804D01*
X0042839Y0053917D01*
X0042998Y0054027D01*
X0043160Y0054132D01*
X0043324Y0054234D01*
X0043491Y0054331D01*
X0043661Y0054424D01*
X0043832Y0054513D01*
X0044006Y0054598D01*
X0044182Y0054678D01*
X0044359Y0054755D01*
X0044539Y0054826D01*
X0044720Y0054894D01*
X0044903Y0054957D01*
X0045087Y0055015D01*
X0045273Y0055069D01*
X0045460Y0055118D01*
X0045648Y0055163D01*
X0045837Y0055203D01*
X0046027Y0055238D01*
X0046217Y0055269D01*
X0046409Y0055295D01*
X0046601Y0055316D01*
X0046794Y0055333D01*
X0046987Y0055345D01*
X0047180Y0055352D01*
X0047373Y0055354D01*
X0047566Y0055352D01*
X0047759Y0055345D01*
X0047952Y0055333D01*
X0048145Y0055316D01*
X0048337Y0055295D01*
X0048529Y0055269D01*
X0048719Y0055238D01*
X0048909Y0055203D01*
X0049098Y0055163D01*
X0049286Y0055118D01*
X0049473Y0055069D01*
X0049659Y0055015D01*
X0049843Y0054957D01*
X0050026Y0054894D01*
X0050207Y0054826D01*
X0050387Y0054755D01*
X0050564Y0054678D01*
X0050740Y0054598D01*
X0050914Y0054513D01*
X0051085Y0054424D01*
X0051255Y0054331D01*
X0051422Y0054234D01*
X0051586Y0054132D01*
X0051748Y0054027D01*
X0051907Y0053917D01*
X0052064Y0053804D01*
X0052218Y0053687D01*
X0052369Y0053566D01*
X0052517Y0053442D01*
X0052662Y0053314D01*
X0052803Y0053182D01*
X0052941Y0053047D01*
X0053076Y0052909D01*
X0053208Y0052768D01*
X0053336Y0052623D01*
X0053460Y0052475D01*
X0053581Y0052324D01*
X0053698Y0052170D01*
X0053811Y0052013D01*
X0053921Y0051854D01*
X0054026Y0051692D01*
X0054128Y0051528D01*
X0054225Y0051361D01*
X0054318Y0051191D01*
X0054407Y0051020D01*
X0054492Y0050846D01*
X0054572Y0050670D01*
X0054649Y0050493D01*
X0054720Y0050313D01*
X0054788Y0050132D01*
X0054851Y0049949D01*
X0054909Y0049765D01*
X0054963Y0049579D01*
X0055012Y0049392D01*
X0055057Y0049204D01*
X0055097Y0049015D01*
X0055132Y0048825D01*
X0055163Y0048635D01*
X0055189Y0048443D01*
X0055210Y0048251D01*
X0055227Y0048058D01*
X0055239Y0047865D01*
X0055246Y0047672D01*
X0055248Y0047479D01*
X0055246Y0047286D01*
X0055239Y0047093D01*
X0055227Y0046900D01*
X0055210Y0046707D01*
X0055189Y0046515D01*
X0055163Y0046323D01*
X0055132Y0046133D01*
X0055097Y0045943D01*
X0055057Y0045754D01*
X0055012Y0045566D01*
X0054963Y0045379D01*
X0054909Y0045193D01*
X0054851Y0045009D01*
X0054788Y0044826D01*
X0054720Y0044645D01*
X0054649Y0044465D01*
X0054572Y0044288D01*
X0054492Y0044112D01*
X0054407Y0043938D01*
X0054318Y0043767D01*
X0054225Y0043597D01*
X0054128Y0043430D01*
X0054026Y0043266D01*
X0053921Y0043104D01*
X0053811Y0042945D01*
X0053698Y0042788D01*
X0053581Y0042634D01*
X0053460Y0042483D01*
X0053336Y0042335D01*
X0053208Y0042190D01*
X0053076Y0042049D01*
X0052941Y0041911D01*
X0052803Y0041776D01*
X0052662Y0041644D01*
X0052517Y0041516D01*
X0052369Y0041392D01*
X0052218Y0041271D01*
X0052064Y0041154D01*
X0051907Y0041041D01*
X0051748Y0040931D01*
X0051586Y0040826D01*
X0051422Y0040724D01*
X0051255Y0040627D01*
X0051085Y0040534D01*
X0050914Y0040445D01*
X0050740Y0040360D01*
X0050564Y0040280D01*
X0050387Y0040203D01*
X0050207Y0040132D01*
X0050026Y0040064D01*
X0049843Y0040001D01*
X0049659Y0039943D01*
X0049473Y0039889D01*
X0049286Y0039840D01*
X0049098Y0039795D01*
X0048909Y0039755D01*
X0048719Y0039720D01*
X0048529Y0039689D01*
X0048337Y0039663D01*
X0048145Y0039642D01*
X0047952Y0039625D01*
X0047759Y0039613D01*
X0047566Y0039606D01*
X0047373Y0039604D01*
X0047180Y0039606D01*
X0046987Y0039613D01*
X0046794Y0039625D01*
X0046601Y0039642D01*
X0046409Y0039663D01*
X0046217Y0039689D01*
X0046027Y0039720D01*
X0045837Y0039755D01*
X0045648Y0039795D01*
X0045460Y0039840D01*
X0045273Y0039889D01*
X0045087Y0039943D01*
X0044903Y0040001D01*
X0044720Y0040064D01*
X0044539Y0040132D01*
X0044359Y0040203D01*
X0044182Y0040280D01*
X0044006Y0040360D01*
X0043832Y0040445D01*
X0043661Y0040534D01*
X0043491Y0040627D01*
X0043324Y0040724D01*
X0043160Y0040826D01*
X0042998Y0040931D01*
X0042839Y0041041D01*
X0042682Y0041154D01*
X0042528Y0041271D01*
X0042377Y0041392D01*
X0042229Y0041516D01*
X0042084Y0041644D01*
X0041943Y0041776D01*
X0041805Y0041911D01*
X0041670Y0042049D01*
X0041538Y0042190D01*
X0041410Y0042335D01*
X0041286Y0042483D01*
X0041165Y0042634D01*
X0041048Y0042788D01*
X0040935Y0042945D01*
X0040825Y0043104D01*
X0040720Y0043266D01*
X0040618Y0043430D01*
X0040521Y0043597D01*
X0040428Y0043767D01*
X0040339Y0043938D01*
X0040254Y0044112D01*
X0040174Y0044288D01*
X0040097Y0044465D01*
X0040026Y0044645D01*
X0039958Y0044826D01*
X0039895Y0045009D01*
X0039837Y0045193D01*
X0039783Y0045379D01*
X0039734Y0045566D01*
X0039689Y0045754D01*
X0039649Y0045943D01*
X0039614Y0046133D01*
X0039583Y0046323D01*
X0039557Y0046515D01*
X0039536Y0046707D01*
X0039519Y0046900D01*
X0039507Y0047093D01*
X0039500Y0047286D01*
X0039498Y0047479D01*
X0110364Y0047479D02*
X0110366Y0047672D01*
X0110373Y0047865D01*
X0110385Y0048058D01*
X0110402Y0048251D01*
X0110423Y0048443D01*
X0110449Y0048635D01*
X0110480Y0048825D01*
X0110515Y0049015D01*
X0110555Y0049204D01*
X0110600Y0049392D01*
X0110649Y0049579D01*
X0110703Y0049765D01*
X0110761Y0049949D01*
X0110824Y0050132D01*
X0110892Y0050313D01*
X0110963Y0050493D01*
X0111040Y0050670D01*
X0111120Y0050846D01*
X0111205Y0051020D01*
X0111294Y0051191D01*
X0111387Y0051361D01*
X0111484Y0051528D01*
X0111586Y0051692D01*
X0111691Y0051854D01*
X0111801Y0052013D01*
X0111914Y0052170D01*
X0112031Y0052324D01*
X0112152Y0052475D01*
X0112276Y0052623D01*
X0112404Y0052768D01*
X0112536Y0052909D01*
X0112671Y0053047D01*
X0112809Y0053182D01*
X0112950Y0053314D01*
X0113095Y0053442D01*
X0113243Y0053566D01*
X0113394Y0053687D01*
X0113548Y0053804D01*
X0113705Y0053917D01*
X0113864Y0054027D01*
X0114026Y0054132D01*
X0114190Y0054234D01*
X0114357Y0054331D01*
X0114527Y0054424D01*
X0114698Y0054513D01*
X0114872Y0054598D01*
X0115048Y0054678D01*
X0115225Y0054755D01*
X0115405Y0054826D01*
X0115586Y0054894D01*
X0115769Y0054957D01*
X0115953Y0055015D01*
X0116139Y0055069D01*
X0116326Y0055118D01*
X0116514Y0055163D01*
X0116703Y0055203D01*
X0116893Y0055238D01*
X0117083Y0055269D01*
X0117275Y0055295D01*
X0117467Y0055316D01*
X0117660Y0055333D01*
X0117853Y0055345D01*
X0118046Y0055352D01*
X0118239Y0055354D01*
X0118432Y0055352D01*
X0118625Y0055345D01*
X0118818Y0055333D01*
X0119011Y0055316D01*
X0119203Y0055295D01*
X0119395Y0055269D01*
X0119585Y0055238D01*
X0119775Y0055203D01*
X0119964Y0055163D01*
X0120152Y0055118D01*
X0120339Y0055069D01*
X0120525Y0055015D01*
X0120709Y0054957D01*
X0120892Y0054894D01*
X0121073Y0054826D01*
X0121253Y0054755D01*
X0121430Y0054678D01*
X0121606Y0054598D01*
X0121780Y0054513D01*
X0121951Y0054424D01*
X0122121Y0054331D01*
X0122288Y0054234D01*
X0122452Y0054132D01*
X0122614Y0054027D01*
X0122773Y0053917D01*
X0122930Y0053804D01*
X0123084Y0053687D01*
X0123235Y0053566D01*
X0123383Y0053442D01*
X0123528Y0053314D01*
X0123669Y0053182D01*
X0123807Y0053047D01*
X0123942Y0052909D01*
X0124074Y0052768D01*
X0124202Y0052623D01*
X0124326Y0052475D01*
X0124447Y0052324D01*
X0124564Y0052170D01*
X0124677Y0052013D01*
X0124787Y0051854D01*
X0124892Y0051692D01*
X0124994Y0051528D01*
X0125091Y0051361D01*
X0125184Y0051191D01*
X0125273Y0051020D01*
X0125358Y0050846D01*
X0125438Y0050670D01*
X0125515Y0050493D01*
X0125586Y0050313D01*
X0125654Y0050132D01*
X0125717Y0049949D01*
X0125775Y0049765D01*
X0125829Y0049579D01*
X0125878Y0049392D01*
X0125923Y0049204D01*
X0125963Y0049015D01*
X0125998Y0048825D01*
X0126029Y0048635D01*
X0126055Y0048443D01*
X0126076Y0048251D01*
X0126093Y0048058D01*
X0126105Y0047865D01*
X0126112Y0047672D01*
X0126114Y0047479D01*
X0126112Y0047286D01*
X0126105Y0047093D01*
X0126093Y0046900D01*
X0126076Y0046707D01*
X0126055Y0046515D01*
X0126029Y0046323D01*
X0125998Y0046133D01*
X0125963Y0045943D01*
X0125923Y0045754D01*
X0125878Y0045566D01*
X0125829Y0045379D01*
X0125775Y0045193D01*
X0125717Y0045009D01*
X0125654Y0044826D01*
X0125586Y0044645D01*
X0125515Y0044465D01*
X0125438Y0044288D01*
X0125358Y0044112D01*
X0125273Y0043938D01*
X0125184Y0043767D01*
X0125091Y0043597D01*
X0124994Y0043430D01*
X0124892Y0043266D01*
X0124787Y0043104D01*
X0124677Y0042945D01*
X0124564Y0042788D01*
X0124447Y0042634D01*
X0124326Y0042483D01*
X0124202Y0042335D01*
X0124074Y0042190D01*
X0123942Y0042049D01*
X0123807Y0041911D01*
X0123669Y0041776D01*
X0123528Y0041644D01*
X0123383Y0041516D01*
X0123235Y0041392D01*
X0123084Y0041271D01*
X0122930Y0041154D01*
X0122773Y0041041D01*
X0122614Y0040931D01*
X0122452Y0040826D01*
X0122288Y0040724D01*
X0122121Y0040627D01*
X0121951Y0040534D01*
X0121780Y0040445D01*
X0121606Y0040360D01*
X0121430Y0040280D01*
X0121253Y0040203D01*
X0121073Y0040132D01*
X0120892Y0040064D01*
X0120709Y0040001D01*
X0120525Y0039943D01*
X0120339Y0039889D01*
X0120152Y0039840D01*
X0119964Y0039795D01*
X0119775Y0039755D01*
X0119585Y0039720D01*
X0119395Y0039689D01*
X0119203Y0039663D01*
X0119011Y0039642D01*
X0118818Y0039625D01*
X0118625Y0039613D01*
X0118432Y0039606D01*
X0118239Y0039604D01*
X0118046Y0039606D01*
X0117853Y0039613D01*
X0117660Y0039625D01*
X0117467Y0039642D01*
X0117275Y0039663D01*
X0117083Y0039689D01*
X0116893Y0039720D01*
X0116703Y0039755D01*
X0116514Y0039795D01*
X0116326Y0039840D01*
X0116139Y0039889D01*
X0115953Y0039943D01*
X0115769Y0040001D01*
X0115586Y0040064D01*
X0115405Y0040132D01*
X0115225Y0040203D01*
X0115048Y0040280D01*
X0114872Y0040360D01*
X0114698Y0040445D01*
X0114527Y0040534D01*
X0114357Y0040627D01*
X0114190Y0040724D01*
X0114026Y0040826D01*
X0113864Y0040931D01*
X0113705Y0041041D01*
X0113548Y0041154D01*
X0113394Y0041271D01*
X0113243Y0041392D01*
X0113095Y0041516D01*
X0112950Y0041644D01*
X0112809Y0041776D01*
X0112671Y0041911D01*
X0112536Y0042049D01*
X0112404Y0042190D01*
X0112276Y0042335D01*
X0112152Y0042483D01*
X0112031Y0042634D01*
X0111914Y0042788D01*
X0111801Y0042945D01*
X0111691Y0043104D01*
X0111586Y0043266D01*
X0111484Y0043430D01*
X0111387Y0043597D01*
X0111294Y0043767D01*
X0111205Y0043938D01*
X0111120Y0044112D01*
X0111040Y0044288D01*
X0110963Y0044465D01*
X0110892Y0044645D01*
X0110824Y0044826D01*
X0110761Y0045009D01*
X0110703Y0045193D01*
X0110649Y0045379D01*
X0110600Y0045566D01*
X0110555Y0045754D01*
X0110515Y0045943D01*
X0110480Y0046133D01*
X0110449Y0046323D01*
X0110423Y0046515D01*
X0110402Y0046707D01*
X0110385Y0046900D01*
X0110373Y0047093D01*
X0110366Y0047286D01*
X0110364Y0047479D01*
X0182214Y0047479D02*
X0182216Y0047672D01*
X0182223Y0047865D01*
X0182235Y0048058D01*
X0182252Y0048251D01*
X0182273Y0048443D01*
X0182299Y0048635D01*
X0182330Y0048825D01*
X0182365Y0049015D01*
X0182405Y0049204D01*
X0182450Y0049392D01*
X0182499Y0049579D01*
X0182553Y0049765D01*
X0182611Y0049949D01*
X0182674Y0050132D01*
X0182742Y0050313D01*
X0182813Y0050493D01*
X0182890Y0050670D01*
X0182970Y0050846D01*
X0183055Y0051020D01*
X0183144Y0051191D01*
X0183237Y0051361D01*
X0183334Y0051528D01*
X0183436Y0051692D01*
X0183541Y0051854D01*
X0183651Y0052013D01*
X0183764Y0052170D01*
X0183881Y0052324D01*
X0184002Y0052475D01*
X0184126Y0052623D01*
X0184254Y0052768D01*
X0184386Y0052909D01*
X0184521Y0053047D01*
X0184659Y0053182D01*
X0184800Y0053314D01*
X0184945Y0053442D01*
X0185093Y0053566D01*
X0185244Y0053687D01*
X0185398Y0053804D01*
X0185555Y0053917D01*
X0185714Y0054027D01*
X0185876Y0054132D01*
X0186040Y0054234D01*
X0186207Y0054331D01*
X0186377Y0054424D01*
X0186548Y0054513D01*
X0186722Y0054598D01*
X0186898Y0054678D01*
X0187075Y0054755D01*
X0187255Y0054826D01*
X0187436Y0054894D01*
X0187619Y0054957D01*
X0187803Y0055015D01*
X0187989Y0055069D01*
X0188176Y0055118D01*
X0188364Y0055163D01*
X0188553Y0055203D01*
X0188743Y0055238D01*
X0188933Y0055269D01*
X0189125Y0055295D01*
X0189317Y0055316D01*
X0189510Y0055333D01*
X0189703Y0055345D01*
X0189896Y0055352D01*
X0190089Y0055354D01*
X0190282Y0055352D01*
X0190475Y0055345D01*
X0190668Y0055333D01*
X0190861Y0055316D01*
X0191053Y0055295D01*
X0191245Y0055269D01*
X0191435Y0055238D01*
X0191625Y0055203D01*
X0191814Y0055163D01*
X0192002Y0055118D01*
X0192189Y0055069D01*
X0192375Y0055015D01*
X0192559Y0054957D01*
X0192742Y0054894D01*
X0192923Y0054826D01*
X0193103Y0054755D01*
X0193280Y0054678D01*
X0193456Y0054598D01*
X0193630Y0054513D01*
X0193801Y0054424D01*
X0193971Y0054331D01*
X0194138Y0054234D01*
X0194302Y0054132D01*
X0194464Y0054027D01*
X0194623Y0053917D01*
X0194780Y0053804D01*
X0194934Y0053687D01*
X0195085Y0053566D01*
X0195233Y0053442D01*
X0195378Y0053314D01*
X0195519Y0053182D01*
X0195657Y0053047D01*
X0195792Y0052909D01*
X0195924Y0052768D01*
X0196052Y0052623D01*
X0196176Y0052475D01*
X0196297Y0052324D01*
X0196414Y0052170D01*
X0196527Y0052013D01*
X0196637Y0051854D01*
X0196742Y0051692D01*
X0196844Y0051528D01*
X0196941Y0051361D01*
X0197034Y0051191D01*
X0197123Y0051020D01*
X0197208Y0050846D01*
X0197288Y0050670D01*
X0197365Y0050493D01*
X0197436Y0050313D01*
X0197504Y0050132D01*
X0197567Y0049949D01*
X0197625Y0049765D01*
X0197679Y0049579D01*
X0197728Y0049392D01*
X0197773Y0049204D01*
X0197813Y0049015D01*
X0197848Y0048825D01*
X0197879Y0048635D01*
X0197905Y0048443D01*
X0197926Y0048251D01*
X0197943Y0048058D01*
X0197955Y0047865D01*
X0197962Y0047672D01*
X0197964Y0047479D01*
X0197962Y0047286D01*
X0197955Y0047093D01*
X0197943Y0046900D01*
X0197926Y0046707D01*
X0197905Y0046515D01*
X0197879Y0046323D01*
X0197848Y0046133D01*
X0197813Y0045943D01*
X0197773Y0045754D01*
X0197728Y0045566D01*
X0197679Y0045379D01*
X0197625Y0045193D01*
X0197567Y0045009D01*
X0197504Y0044826D01*
X0197436Y0044645D01*
X0197365Y0044465D01*
X0197288Y0044288D01*
X0197208Y0044112D01*
X0197123Y0043938D01*
X0197034Y0043767D01*
X0196941Y0043597D01*
X0196844Y0043430D01*
X0196742Y0043266D01*
X0196637Y0043104D01*
X0196527Y0042945D01*
X0196414Y0042788D01*
X0196297Y0042634D01*
X0196176Y0042483D01*
X0196052Y0042335D01*
X0195924Y0042190D01*
X0195792Y0042049D01*
X0195657Y0041911D01*
X0195519Y0041776D01*
X0195378Y0041644D01*
X0195233Y0041516D01*
X0195085Y0041392D01*
X0194934Y0041271D01*
X0194780Y0041154D01*
X0194623Y0041041D01*
X0194464Y0040931D01*
X0194302Y0040826D01*
X0194138Y0040724D01*
X0193971Y0040627D01*
X0193801Y0040534D01*
X0193630Y0040445D01*
X0193456Y0040360D01*
X0193280Y0040280D01*
X0193103Y0040203D01*
X0192923Y0040132D01*
X0192742Y0040064D01*
X0192559Y0040001D01*
X0192375Y0039943D01*
X0192189Y0039889D01*
X0192002Y0039840D01*
X0191814Y0039795D01*
X0191625Y0039755D01*
X0191435Y0039720D01*
X0191245Y0039689D01*
X0191053Y0039663D01*
X0190861Y0039642D01*
X0190668Y0039625D01*
X0190475Y0039613D01*
X0190282Y0039606D01*
X0190089Y0039604D01*
X0189896Y0039606D01*
X0189703Y0039613D01*
X0189510Y0039625D01*
X0189317Y0039642D01*
X0189125Y0039663D01*
X0188933Y0039689D01*
X0188743Y0039720D01*
X0188553Y0039755D01*
X0188364Y0039795D01*
X0188176Y0039840D01*
X0187989Y0039889D01*
X0187803Y0039943D01*
X0187619Y0040001D01*
X0187436Y0040064D01*
X0187255Y0040132D01*
X0187075Y0040203D01*
X0186898Y0040280D01*
X0186722Y0040360D01*
X0186548Y0040445D01*
X0186377Y0040534D01*
X0186207Y0040627D01*
X0186040Y0040724D01*
X0185876Y0040826D01*
X0185714Y0040931D01*
X0185555Y0041041D01*
X0185398Y0041154D01*
X0185244Y0041271D01*
X0185093Y0041392D01*
X0184945Y0041516D01*
X0184800Y0041644D01*
X0184659Y0041776D01*
X0184521Y0041911D01*
X0184386Y0042049D01*
X0184254Y0042190D01*
X0184126Y0042335D01*
X0184002Y0042483D01*
X0183881Y0042634D01*
X0183764Y0042788D01*
X0183651Y0042945D01*
X0183541Y0043104D01*
X0183436Y0043266D01*
X0183334Y0043430D01*
X0183237Y0043597D01*
X0183144Y0043767D01*
X0183055Y0043938D01*
X0182970Y0044112D01*
X0182890Y0044288D01*
X0182813Y0044465D01*
X0182742Y0044645D01*
X0182674Y0044826D01*
X0182611Y0045009D01*
X0182553Y0045193D01*
X0182499Y0045379D01*
X0182450Y0045566D01*
X0182405Y0045754D01*
X0182365Y0045943D01*
X0182330Y0046133D01*
X0182299Y0046323D01*
X0182273Y0046515D01*
X0182252Y0046707D01*
X0182235Y0046900D01*
X0182223Y0047093D01*
X0182216Y0047286D01*
X0182214Y0047479D01*
X0255049Y0047479D02*
X0255051Y0047672D01*
X0255058Y0047865D01*
X0255070Y0048058D01*
X0255087Y0048251D01*
X0255108Y0048443D01*
X0255134Y0048635D01*
X0255165Y0048825D01*
X0255200Y0049015D01*
X0255240Y0049204D01*
X0255285Y0049392D01*
X0255334Y0049579D01*
X0255388Y0049765D01*
X0255446Y0049949D01*
X0255509Y0050132D01*
X0255577Y0050313D01*
X0255648Y0050493D01*
X0255725Y0050670D01*
X0255805Y0050846D01*
X0255890Y0051020D01*
X0255979Y0051191D01*
X0256072Y0051361D01*
X0256169Y0051528D01*
X0256271Y0051692D01*
X0256376Y0051854D01*
X0256486Y0052013D01*
X0256599Y0052170D01*
X0256716Y0052324D01*
X0256837Y0052475D01*
X0256961Y0052623D01*
X0257089Y0052768D01*
X0257221Y0052909D01*
X0257356Y0053047D01*
X0257494Y0053182D01*
X0257635Y0053314D01*
X0257780Y0053442D01*
X0257928Y0053566D01*
X0258079Y0053687D01*
X0258233Y0053804D01*
X0258390Y0053917D01*
X0258549Y0054027D01*
X0258711Y0054132D01*
X0258875Y0054234D01*
X0259042Y0054331D01*
X0259212Y0054424D01*
X0259383Y0054513D01*
X0259557Y0054598D01*
X0259733Y0054678D01*
X0259910Y0054755D01*
X0260090Y0054826D01*
X0260271Y0054894D01*
X0260454Y0054957D01*
X0260638Y0055015D01*
X0260824Y0055069D01*
X0261011Y0055118D01*
X0261199Y0055163D01*
X0261388Y0055203D01*
X0261578Y0055238D01*
X0261768Y0055269D01*
X0261960Y0055295D01*
X0262152Y0055316D01*
X0262345Y0055333D01*
X0262538Y0055345D01*
X0262731Y0055352D01*
X0262924Y0055354D01*
X0263117Y0055352D01*
X0263310Y0055345D01*
X0263503Y0055333D01*
X0263696Y0055316D01*
X0263888Y0055295D01*
X0264080Y0055269D01*
X0264270Y0055238D01*
X0264460Y0055203D01*
X0264649Y0055163D01*
X0264837Y0055118D01*
X0265024Y0055069D01*
X0265210Y0055015D01*
X0265394Y0054957D01*
X0265577Y0054894D01*
X0265758Y0054826D01*
X0265938Y0054755D01*
X0266115Y0054678D01*
X0266291Y0054598D01*
X0266465Y0054513D01*
X0266636Y0054424D01*
X0266806Y0054331D01*
X0266973Y0054234D01*
X0267137Y0054132D01*
X0267299Y0054027D01*
X0267458Y0053917D01*
X0267615Y0053804D01*
X0267769Y0053687D01*
X0267920Y0053566D01*
X0268068Y0053442D01*
X0268213Y0053314D01*
X0268354Y0053182D01*
X0268492Y0053047D01*
X0268627Y0052909D01*
X0268759Y0052768D01*
X0268887Y0052623D01*
X0269011Y0052475D01*
X0269132Y0052324D01*
X0269249Y0052170D01*
X0269362Y0052013D01*
X0269472Y0051854D01*
X0269577Y0051692D01*
X0269679Y0051528D01*
X0269776Y0051361D01*
X0269869Y0051191D01*
X0269958Y0051020D01*
X0270043Y0050846D01*
X0270123Y0050670D01*
X0270200Y0050493D01*
X0270271Y0050313D01*
X0270339Y0050132D01*
X0270402Y0049949D01*
X0270460Y0049765D01*
X0270514Y0049579D01*
X0270563Y0049392D01*
X0270608Y0049204D01*
X0270648Y0049015D01*
X0270683Y0048825D01*
X0270714Y0048635D01*
X0270740Y0048443D01*
X0270761Y0048251D01*
X0270778Y0048058D01*
X0270790Y0047865D01*
X0270797Y0047672D01*
X0270799Y0047479D01*
X0270797Y0047286D01*
X0270790Y0047093D01*
X0270778Y0046900D01*
X0270761Y0046707D01*
X0270740Y0046515D01*
X0270714Y0046323D01*
X0270683Y0046133D01*
X0270648Y0045943D01*
X0270608Y0045754D01*
X0270563Y0045566D01*
X0270514Y0045379D01*
X0270460Y0045193D01*
X0270402Y0045009D01*
X0270339Y0044826D01*
X0270271Y0044645D01*
X0270200Y0044465D01*
X0270123Y0044288D01*
X0270043Y0044112D01*
X0269958Y0043938D01*
X0269869Y0043767D01*
X0269776Y0043597D01*
X0269679Y0043430D01*
X0269577Y0043266D01*
X0269472Y0043104D01*
X0269362Y0042945D01*
X0269249Y0042788D01*
X0269132Y0042634D01*
X0269011Y0042483D01*
X0268887Y0042335D01*
X0268759Y0042190D01*
X0268627Y0042049D01*
X0268492Y0041911D01*
X0268354Y0041776D01*
X0268213Y0041644D01*
X0268068Y0041516D01*
X0267920Y0041392D01*
X0267769Y0041271D01*
X0267615Y0041154D01*
X0267458Y0041041D01*
X0267299Y0040931D01*
X0267137Y0040826D01*
X0266973Y0040724D01*
X0266806Y0040627D01*
X0266636Y0040534D01*
X0266465Y0040445D01*
X0266291Y0040360D01*
X0266115Y0040280D01*
X0265938Y0040203D01*
X0265758Y0040132D01*
X0265577Y0040064D01*
X0265394Y0040001D01*
X0265210Y0039943D01*
X0265024Y0039889D01*
X0264837Y0039840D01*
X0264649Y0039795D01*
X0264460Y0039755D01*
X0264270Y0039720D01*
X0264080Y0039689D01*
X0263888Y0039663D01*
X0263696Y0039642D01*
X0263503Y0039625D01*
X0263310Y0039613D01*
X0263117Y0039606D01*
X0262924Y0039604D01*
X0262731Y0039606D01*
X0262538Y0039613D01*
X0262345Y0039625D01*
X0262152Y0039642D01*
X0261960Y0039663D01*
X0261768Y0039689D01*
X0261578Y0039720D01*
X0261388Y0039755D01*
X0261199Y0039795D01*
X0261011Y0039840D01*
X0260824Y0039889D01*
X0260638Y0039943D01*
X0260454Y0040001D01*
X0260271Y0040064D01*
X0260090Y0040132D01*
X0259910Y0040203D01*
X0259733Y0040280D01*
X0259557Y0040360D01*
X0259383Y0040445D01*
X0259212Y0040534D01*
X0259042Y0040627D01*
X0258875Y0040724D01*
X0258711Y0040826D01*
X0258549Y0040931D01*
X0258390Y0041041D01*
X0258233Y0041154D01*
X0258079Y0041271D01*
X0257928Y0041392D01*
X0257780Y0041516D01*
X0257635Y0041644D01*
X0257494Y0041776D01*
X0257356Y0041911D01*
X0257221Y0042049D01*
X0257089Y0042190D01*
X0256961Y0042335D01*
X0256837Y0042483D01*
X0256716Y0042634D01*
X0256599Y0042788D01*
X0256486Y0042945D01*
X0256376Y0043104D01*
X0256271Y0043266D01*
X0256169Y0043430D01*
X0256072Y0043597D01*
X0255979Y0043767D01*
X0255890Y0043938D01*
X0255805Y0044112D01*
X0255725Y0044288D01*
X0255648Y0044465D01*
X0255577Y0044645D01*
X0255509Y0044826D01*
X0255446Y0045009D01*
X0255388Y0045193D01*
X0255334Y0045379D01*
X0255285Y0045566D01*
X0255240Y0045754D01*
X0255200Y0045943D01*
X0255165Y0046133D01*
X0255134Y0046323D01*
X0255108Y0046515D01*
X0255087Y0046707D01*
X0255070Y0046900D01*
X0255058Y0047093D01*
X0255051Y0047286D01*
X0255049Y0047479D01*
X0328868Y0047479D02*
X0328870Y0047672D01*
X0328877Y0047865D01*
X0328889Y0048058D01*
X0328906Y0048251D01*
X0328927Y0048443D01*
X0328953Y0048635D01*
X0328984Y0048825D01*
X0329019Y0049015D01*
X0329059Y0049204D01*
X0329104Y0049392D01*
X0329153Y0049579D01*
X0329207Y0049765D01*
X0329265Y0049949D01*
X0329328Y0050132D01*
X0329396Y0050313D01*
X0329467Y0050493D01*
X0329544Y0050670D01*
X0329624Y0050846D01*
X0329709Y0051020D01*
X0329798Y0051191D01*
X0329891Y0051361D01*
X0329988Y0051528D01*
X0330090Y0051692D01*
X0330195Y0051854D01*
X0330305Y0052013D01*
X0330418Y0052170D01*
X0330535Y0052324D01*
X0330656Y0052475D01*
X0330780Y0052623D01*
X0330908Y0052768D01*
X0331040Y0052909D01*
X0331175Y0053047D01*
X0331313Y0053182D01*
X0331454Y0053314D01*
X0331599Y0053442D01*
X0331747Y0053566D01*
X0331898Y0053687D01*
X0332052Y0053804D01*
X0332209Y0053917D01*
X0332368Y0054027D01*
X0332530Y0054132D01*
X0332694Y0054234D01*
X0332861Y0054331D01*
X0333031Y0054424D01*
X0333202Y0054513D01*
X0333376Y0054598D01*
X0333552Y0054678D01*
X0333729Y0054755D01*
X0333909Y0054826D01*
X0334090Y0054894D01*
X0334273Y0054957D01*
X0334457Y0055015D01*
X0334643Y0055069D01*
X0334830Y0055118D01*
X0335018Y0055163D01*
X0335207Y0055203D01*
X0335397Y0055238D01*
X0335587Y0055269D01*
X0335779Y0055295D01*
X0335971Y0055316D01*
X0336164Y0055333D01*
X0336357Y0055345D01*
X0336550Y0055352D01*
X0336743Y0055354D01*
X0336936Y0055352D01*
X0337129Y0055345D01*
X0337322Y0055333D01*
X0337515Y0055316D01*
X0337707Y0055295D01*
X0337899Y0055269D01*
X0338089Y0055238D01*
X0338279Y0055203D01*
X0338468Y0055163D01*
X0338656Y0055118D01*
X0338843Y0055069D01*
X0339029Y0055015D01*
X0339213Y0054957D01*
X0339396Y0054894D01*
X0339577Y0054826D01*
X0339757Y0054755D01*
X0339934Y0054678D01*
X0340110Y0054598D01*
X0340284Y0054513D01*
X0340455Y0054424D01*
X0340625Y0054331D01*
X0340792Y0054234D01*
X0340956Y0054132D01*
X0341118Y0054027D01*
X0341277Y0053917D01*
X0341434Y0053804D01*
X0341588Y0053687D01*
X0341739Y0053566D01*
X0341887Y0053442D01*
X0342032Y0053314D01*
X0342173Y0053182D01*
X0342311Y0053047D01*
X0342446Y0052909D01*
X0342578Y0052768D01*
X0342706Y0052623D01*
X0342830Y0052475D01*
X0342951Y0052324D01*
X0343068Y0052170D01*
X0343181Y0052013D01*
X0343291Y0051854D01*
X0343396Y0051692D01*
X0343498Y0051528D01*
X0343595Y0051361D01*
X0343688Y0051191D01*
X0343777Y0051020D01*
X0343862Y0050846D01*
X0343942Y0050670D01*
X0344019Y0050493D01*
X0344090Y0050313D01*
X0344158Y0050132D01*
X0344221Y0049949D01*
X0344279Y0049765D01*
X0344333Y0049579D01*
X0344382Y0049392D01*
X0344427Y0049204D01*
X0344467Y0049015D01*
X0344502Y0048825D01*
X0344533Y0048635D01*
X0344559Y0048443D01*
X0344580Y0048251D01*
X0344597Y0048058D01*
X0344609Y0047865D01*
X0344616Y0047672D01*
X0344618Y0047479D01*
X0344616Y0047286D01*
X0344609Y0047093D01*
X0344597Y0046900D01*
X0344580Y0046707D01*
X0344559Y0046515D01*
X0344533Y0046323D01*
X0344502Y0046133D01*
X0344467Y0045943D01*
X0344427Y0045754D01*
X0344382Y0045566D01*
X0344333Y0045379D01*
X0344279Y0045193D01*
X0344221Y0045009D01*
X0344158Y0044826D01*
X0344090Y0044645D01*
X0344019Y0044465D01*
X0343942Y0044288D01*
X0343862Y0044112D01*
X0343777Y0043938D01*
X0343688Y0043767D01*
X0343595Y0043597D01*
X0343498Y0043430D01*
X0343396Y0043266D01*
X0343291Y0043104D01*
X0343181Y0042945D01*
X0343068Y0042788D01*
X0342951Y0042634D01*
X0342830Y0042483D01*
X0342706Y0042335D01*
X0342578Y0042190D01*
X0342446Y0042049D01*
X0342311Y0041911D01*
X0342173Y0041776D01*
X0342032Y0041644D01*
X0341887Y0041516D01*
X0341739Y0041392D01*
X0341588Y0041271D01*
X0341434Y0041154D01*
X0341277Y0041041D01*
X0341118Y0040931D01*
X0340956Y0040826D01*
X0340792Y0040724D01*
X0340625Y0040627D01*
X0340455Y0040534D01*
X0340284Y0040445D01*
X0340110Y0040360D01*
X0339934Y0040280D01*
X0339757Y0040203D01*
X0339577Y0040132D01*
X0339396Y0040064D01*
X0339213Y0040001D01*
X0339029Y0039943D01*
X0338843Y0039889D01*
X0338656Y0039840D01*
X0338468Y0039795D01*
X0338279Y0039755D01*
X0338089Y0039720D01*
X0337899Y0039689D01*
X0337707Y0039663D01*
X0337515Y0039642D01*
X0337322Y0039625D01*
X0337129Y0039613D01*
X0336936Y0039606D01*
X0336743Y0039604D01*
X0336550Y0039606D01*
X0336357Y0039613D01*
X0336164Y0039625D01*
X0335971Y0039642D01*
X0335779Y0039663D01*
X0335587Y0039689D01*
X0335397Y0039720D01*
X0335207Y0039755D01*
X0335018Y0039795D01*
X0334830Y0039840D01*
X0334643Y0039889D01*
X0334457Y0039943D01*
X0334273Y0040001D01*
X0334090Y0040064D01*
X0333909Y0040132D01*
X0333729Y0040203D01*
X0333552Y0040280D01*
X0333376Y0040360D01*
X0333202Y0040445D01*
X0333031Y0040534D01*
X0332861Y0040627D01*
X0332694Y0040724D01*
X0332530Y0040826D01*
X0332368Y0040931D01*
X0332209Y0041041D01*
X0332052Y0041154D01*
X0331898Y0041271D01*
X0331747Y0041392D01*
X0331599Y0041516D01*
X0331454Y0041644D01*
X0331313Y0041776D01*
X0331175Y0041911D01*
X0331040Y0042049D01*
X0330908Y0042190D01*
X0330780Y0042335D01*
X0330656Y0042483D01*
X0330535Y0042634D01*
X0330418Y0042788D01*
X0330305Y0042945D01*
X0330195Y0043104D01*
X0330090Y0043266D01*
X0329988Y0043430D01*
X0329891Y0043597D01*
X0329798Y0043767D01*
X0329709Y0043938D01*
X0329624Y0044112D01*
X0329544Y0044288D01*
X0329467Y0044465D01*
X0329396Y0044645D01*
X0329328Y0044826D01*
X0329265Y0045009D01*
X0329207Y0045193D01*
X0329153Y0045379D01*
X0329104Y0045566D01*
X0329059Y0045754D01*
X0329019Y0045943D01*
X0328984Y0046133D01*
X0328953Y0046323D01*
X0328927Y0046515D01*
X0328906Y0046707D01*
X0328889Y0046900D01*
X0328877Y0047093D01*
X0328870Y0047286D01*
X0328868Y0047479D01*
M02*
